<svg xmlns="http://www.w3.org/2000/svg" width="157.502" height="190.765" viewBox="0 0 157.502 190.765">
  <g id="Group_7652" data-name="Group 7652" transform="translate(-1171.149 -425.519)">
    <g id="Group_7651" data-name="Group 7651" transform="translate(88.732 -18.481)">
      <path id="Path_40563" data-name="Path 40563" d="M3.849-8h149.6c2.126,0,3.849,2.444,3.849,5.459V177.306c0,3.015-1.723,5.458-3.849,5.458H3.849c-2.126,0-3.849-2.444-3.849-5.458V-2.541C0-5.556,1.723-8,3.849-8Z" transform="translate(1082.617 452)"/>
      <text id="_17_1_2024" data-name="17/1/2024" transform="translate(1164.268 467.831)" fill="#fff" font-size="14" font-family="Rubik-Regular, Rubik"><tspan x="-65" y="0">17/1/2024</tspan></text>
      <circle id="Ellipse_75" data-name="Ellipse 75" cx="5.255" cy="5.255" r="5.255" transform="translate(1099.268 498.322)" fill="aqua"/>
      <circle id="Ellipse_76" data-name="Ellipse 76" cx="5.255" cy="5.255" r="5.255" transform="translate(1099.119 545.285)" fill="#acadf8"/>
      <circle id="Ellipse_77" data-name="Ellipse 77" cx="5.255" cy="5.255" r="5.255" transform="translate(1099.119 592.249)" fill="#f5891d"/>
      <text id="Properties_Sale_Out_Under_Process_Reserved_or_Rented" data-name="Properties Sale Out
Under Process
Reserved or Rented" transform="translate(1121.679 506.322)" fill="#f5f5f5" font-size="12" font-family="Rubik-Regular, Rubik" letter-spacing="-0.047em"><tspan x="0" y="0">Properties Sale Out</tspan><tspan x="0" y="47">Under Process</tspan><tspan x="0" y="94">Reserved or Rented</tspan></text>
      <text id="_34" data-name="34" transform="translate(1122.522 525.794)" fill="#fff" font-size="13" font-family="Rubik-Medium, Rubik" font-weight="500"><tspan x="0" y="0">34</tspan></text>
      <text id="_3" data-name="3" transform="translate(1123.522 571.18)" fill="#fff" font-size="13" font-family="Rubik-Medium, Rubik" font-weight="500"><tspan x="0" y="0">3</tspan></text>
      <text id="_1" data-name="1" transform="translate(1123.522 616.306)" fill="#fff" font-size="11" font-family="Rubik-Medium, Rubik" font-weight="500"><tspan x="0" y="0">1</tspan></text>
    </g>
    <path id="Path_41128" data-name="Path 41128" d="M0,0H157.5" transform="translate(1171.149 465.247)" fill="none" stroke="#707070" stroke-width="0.5" opacity="0.49"/>
  </g>
</svg>
