
<svg xmlns="http://www.w3.org/2000/svg" width="485.344" height="148.31" viewBox="0 0 485.344 148.31">
  <g id="Group_8065" data-name="Group 8065" transform="translate(-433.24 -221.385)">
    <g id="Group_7662" data-name="Group 7662" transform="translate(433.24 221.385)">
      <path id="Subtraction_8" data-name="Subtraction 8" d="M441.932,76.175a25.559,25.559,0,0,1-10.185-2.046A26.765,26.765,0,0,1,417.723,60.1a26.453,26.453,0,0,1,0-20.392,26.7,26.7,0,0,1,14.024-14.053,25.557,25.557,0,0,1,10.185-2.046,21,21,0,0,1,5.416.674,17.028,17.028,0,0,1,4.67,2.023,20.268,20.268,0,0,1,6.838,7.087V0h8.388l0,47.6A105.671,105.671,0,0,0,457.6,61.023c-.129.215-1.165,1.963-1.4,2.383-.519-.467-1.092-.974-1.7-1.507a17.412,17.412,0,0,0,1.7-2.845,21.089,21.089,0,0,0,1.969-9.137,20.918,20.918,0,0,0-2-9.21,16.258,16.258,0,0,0-5.612-6.541,15.051,15.051,0,0,0-8.514-2.418,16.959,16.959,0,0,0-8.959,2.446,18.442,18.442,0,0,0-6.416,6.562,17.967,17.967,0,0,0-2.4,9.161,17.7,17.7,0,0,0,2.446,9.161,18.618,18.618,0,0,0,6.489,6.538,16.956,16.956,0,0,0,8.837,2.422,17.989,17.989,0,0,0,3.061-.254c2.058,2.29,3.9,4.393,5.63,6.43A19.174,19.174,0,0,1,441.932,76.175Zm-57.256,0A25.784,25.784,0,0,1,374.391,74.1a27.113,27.113,0,0,1-8.461-5.741,26.825,26.825,0,0,1-5.713-8.458A26.127,26.127,0,0,1,374,25.583a25.284,25.284,0,0,1,10.083-2.021,21.37,21.37,0,0,1,5.526.692,17.733,17.733,0,0,1,4.807,2.077,22.378,22.378,0,0,1,7.188,7.164l-.3-8.538h8.389l0,49.921H401.3l-.348-8.437a19.262,19.262,0,0,1-6.465,7.038,15.892,15.892,0,0,1-4.512,2.023A20.009,20.009,0,0,1,384.676,76.175Zm-.148-44.427a17.1,17.1,0,0,0-8.988,2.446,18.11,18.11,0,0,0-8.783,15.723,17.666,17.666,0,0,0,2.444,9.161,18.607,18.607,0,0,0,6.489,6.538,16.962,16.962,0,0,0,8.838,2.422,15.083,15.083,0,0,0,8.559-2.422,16.04,16.04,0,0,0,5.591-6.562,21.085,21.085,0,0,0,1.975-9.137,20.906,20.906,0,0,0-2-9.21,16.26,16.26,0,0,0-5.614-6.541A15.035,15.035,0,0,0,384.527,31.748ZM328.318,76.175a24.208,24.208,0,0,1-6.584-.887,23.132,23.132,0,0,1-5.973-2.658,26.139,26.139,0,0,1-5.092-4.149,27.191,27.191,0,0,1-3.943-5.36,25.8,25.8,0,0,1-2.525-6.284,28.042,28.042,0,0,1-.843-6.92,26.875,26.875,0,0,1,7.313-18.646,25.071,25.071,0,0,1,7.961-5.664,23.429,23.429,0,0,1,9.686-2.046,23.686,23.686,0,0,1,10.357,2.269,24.145,24.145,0,0,1,8.087,6.315,27.231,27.231,0,0,1,5.041,9.387,30.6,30.6,0,0,1,1.226,11.429H312.294a18.228,18.228,0,0,0,2.793,7.564,16.422,16.422,0,0,0,5.619,5.268,15.542,15.542,0,0,0,7.612,1.994,14.878,14.878,0,0,0,8.135-2.321,17.432,17.432,0,0,0,5.891-6.364l8.535,2a26.294,26.294,0,0,1-3.755,6.033,26.855,26.855,0,0,1-5.278,4.822,23.268,23.268,0,0,1-6.4,3.166A23.9,23.9,0,0,1,328.318,76.175Zm0-45.126a15,15,0,0,0-7.688,2.046,17.294,17.294,0,0,0-5.766,5.515,18.246,18.246,0,0,0-2.82,7.762h32.547a16.6,16.6,0,0,0-2.7-7.661,17.888,17.888,0,0,0-5.842-5.567A15.009,15.009,0,0,0,328.318,31.049ZM227.83,76.175a24.21,24.21,0,0,1-6.582-.887,23.1,23.1,0,0,1-5.972-2.658,26.178,26.178,0,0,1-5.093-4.149,27.128,27.128,0,0,1-3.942-5.36,25.731,25.731,0,0,1-2.529-6.284,28.037,28.037,0,0,1-.842-6.92,26.915,26.915,0,0,1,7.313-18.646,25.073,25.073,0,0,1,7.964-5.664,23.407,23.407,0,0,1,9.684-2.046,23.688,23.688,0,0,1,10.358,2.269,24.075,24.075,0,0,1,8.085,6.315,27.246,27.246,0,0,1,5.042,9.387,30.516,30.516,0,0,1,1.225,11.429H211.8a18.15,18.15,0,0,0,2.8,7.564,16.426,16.426,0,0,0,5.615,5.268,15.539,15.539,0,0,0,7.612,1.994,14.908,14.908,0,0,0,8.139-2.321,17.48,17.48,0,0,0,5.891-6.364l8.534,2a26.4,26.4,0,0,1-3.756,6.033,26.838,26.838,0,0,1-5.279,4.822,23.276,23.276,0,0,1-6.4,3.166A23.9,23.9,0,0,1,227.83,76.175Zm0-45.126a15.019,15.019,0,0,0-7.688,2.046,17.367,17.367,0,0,0-5.766,5.515,18.29,18.29,0,0,0-2.819,7.762h32.55a16.6,16.6,0,0,0-2.7-7.661,17.817,17.817,0,0,0-5.838-5.567A15.012,15.012,0,0,0,227.83,31.049ZM84.862,76.175a24.21,24.21,0,0,1-6.582-.887A23.094,23.094,0,0,1,72.31,72.63a26.116,26.116,0,0,1-5.093-4.149,27.125,27.125,0,0,1-3.943-5.36,25.684,25.684,0,0,1-2.527-6.284,27.945,27.945,0,0,1-.844-6.92,26.922,26.922,0,0,1,7.313-18.646,25.062,25.062,0,0,1,7.961-5.664,23.425,23.425,0,0,1,9.686-2.046,24.255,24.255,0,0,1,6.584.885,23.084,23.084,0,0,1,5.97,2.657,25.959,25.959,0,0,1,5.093,4.156,27.153,27.153,0,0,1,3.943,5.38,25.808,25.808,0,0,1,2.528,6.314,28.4,28.4,0,0,1,.844,6.963A26.665,26.665,0,0,1,107.875,60.1a27.058,27.058,0,0,1-5.365,8.361A25.159,25.159,0,0,1,94.57,74.13,23.353,23.353,0,0,1,84.862,76.175Zm0-44.229a15.061,15.061,0,0,0-8.437,2.47,17.889,17.889,0,0,0-5.938,6.565,19.349,19.349,0,0,0,.048,17.995,17.349,17.349,0,0,0,6.04,6.44,15.414,15.414,0,0,0,8.287,2.37,15.15,15.15,0,0,0,8.463-2.47,17.655,17.655,0,0,0,5.938-6.538,19.227,19.227,0,0,0-.048-17.845,17.883,17.883,0,0,0-5.968-6.541A15.053,15.053,0,0,0,84.862,31.947ZM196.88,74.878h-8.387V45.826a13.629,13.629,0,0,0-1.8-6.84,14.141,14.141,0,0,0-4.844-5.041,12.524,12.524,0,0,0-6.739-1.9,13.125,13.125,0,0,0-11.578,6.663,14.034,14.034,0,0,0-1.8,7.115V74.878h-8.385V45.826a14.076,14.076,0,0,0-1.8-7.115,13.14,13.14,0,0,0-4.869-4.892,13.322,13.322,0,0,0-6.763-1.771,12.587,12.587,0,0,0-6.716,1.9,14.08,14.08,0,0,0-4.867,5.041,13.642,13.642,0,0,0-1.795,6.84V74.878H118.16V24.957h8.385V31.2a19.46,19.46,0,0,1,6.662-5.567,18.925,18.925,0,0,1,8.761-2.07A19.758,19.758,0,0,1,152.1,26.255a20.223,20.223,0,0,1,7.236,7.14,20.3,20.3,0,0,1,7.214-7.14,19.293,19.293,0,0,1,4.8-2.02,20.358,20.358,0,0,1,5.262-.673,19.769,19.769,0,0,1,10.232,2.721,20.655,20.655,0,0,1,7.314,7.31,19.818,19.818,0,0,1,2.718,10.236V74.878Zm-145.511,0h-8.39V41.63H8.389V74.878H0V4.989H8.389V33.245h34.59V4.989h8.389V74.878Zm415.876,0h-4.016c1.185-2.417,2.589-5.267,4.014-8.1l0,8.1Z" transform="translate(0 24.383)" fill="#fff"/>
      <rect id="Rectangle_130" data-name="Rectangle 130" width="7.038" height="6.751" transform="translate(277.68 75.24)" fill="#fff"/>
      <rect id="Rectangle_131" data-name="Rectangle 131" width="7.038" height="6.751" transform="translate(290.583 75.24)" fill="#fff"/>
      <rect id="Rectangle_132" data-name="Rectangle 132" width="7.038" height="6.751" transform="translate(277.68 63.426)" fill="#fff"/>
      <rect id="Rectangle_133" data-name="Rectangle 133" width="7.038" height="6.751" transform="translate(290.583 63.426)" fill="#fff"/>
      <path id="check-mark-svgrepo-com" d="M17.47,48.416C24.564,56.092,31.443,63,38.055,71.742,45.244,57.444,52.6,43.1,64.742,27.558l-3.271-1.5C51.22,36.932,43.255,47.223,36.335,59.453A181.9,181.9,0,0,0,19,45.831Z" transform="translate(420.601 31.483)" fill="#03ffbc"/>
      <path id="Path_41118" data-name="Path 41118" d="M1040.8,334.445" transform="translate(-557.658 -186.135)" fill="none" stroke="#707070" stroke-width="1"/>
      <text id="Powered_by_Telepathy" data-name="Powered by Telepathy" transform="translate(393.31 118.746)" fill="#b5b5b5" font-size="13" font-family="Rubik-Regular, Rubik"><tspan x="-66" y="0">Powered by </tspan><tspan y="0" fill="#fff">Telepathy</tspan></text>
      <path id="Subtraction_10" data-name="Subtraction 10" d="M96.736,135.3H0V33.206l8.39,5.66v88.045H96.736v8.383Zm24.951-91.658h-8.561V37.269l8.586-5.791-.025,12.158ZM11.6,32.74h0L3.816,27.486,60.541,0l.033.047,56.248,26.435-8.169,5.509L60.53,9.74l-48.927,23Z" transform="translate(260.526 0)" fill="#03ffbc"/>
    </g>
    <path id="Path_41572" data-name="Path 41572" d="M-20346.977-2153.779v103.143h96.836v-9.888h-88.652v-88.14Z" transform="translate(21040.844 2408.322)" fill="#fff"/>
  </g>
</svg>
