
<svg xmlns="http://www.w3.org/2000/svg" width="285.914" height="87.369" viewBox="0 0 285.914 87.369">
  <g id="Group_8065" data-name="Group 8065" transform="translate(-433.24 -221.385)">
    <g id="Group_7662" data-name="Group 7662" transform="translate(433.24 221.385)">
      <path id="Subtraction_8" data-name="Subtraction 8" d="M260.34,44.875a15.057,15.057,0,0,1-6-1.205,15.767,15.767,0,0,1-8.262-8.264,15.583,15.583,0,0,1,0-12.013,15.729,15.729,0,0,1,8.262-8.278,15.055,15.055,0,0,1,6-1.205,12.369,12.369,0,0,1,3.191.4,10.031,10.031,0,0,1,2.751,1.192,11.94,11.94,0,0,1,4.028,4.175V0h4.941V28.042a62.252,62.252,0,0,0-5.684,7.907c-.076.126-.686,1.156-.826,1.4-.305-.275-.643-.574-1-.888a10.257,10.257,0,0,0,1-1.676,12.423,12.423,0,0,0,1.16-5.382,12.323,12.323,0,0,0-1.176-5.425,9.578,9.578,0,0,0-3.306-3.854A8.866,8.866,0,0,0,260.4,18.7a9.991,9.991,0,0,0-5.278,1.441,10.864,10.864,0,0,0-3.78,3.866,10.584,10.584,0,0,0-1.412,5.4,10.428,10.428,0,0,0,1.441,5.4,10.968,10.968,0,0,0,3.823,3.851,9.989,9.989,0,0,0,5.206,1.427,10.6,10.6,0,0,0,1.8-.149c1.212,1.349,2.3,2.588,3.317,3.788A11.3,11.3,0,0,1,260.34,44.875Zm-33.729,0a15.189,15.189,0,0,1-6.059-1.222,15.972,15.972,0,0,1-4.984-3.382,15.8,15.8,0,0,1-3.365-4.983,15.392,15.392,0,0,1,8.117-20.218,14.9,14.9,0,0,1,5.94-1.191,12.589,12.589,0,0,1,3.256.408,10.447,10.447,0,0,1,2.832,1.224,13.183,13.183,0,0,1,4.235,4.22L236.4,14.7h4.942V44.11H236.4l-.2-4.97a11.347,11.347,0,0,1-3.808,4.146,9.363,9.363,0,0,1-2.658,1.192A11.787,11.787,0,0,1,226.611,44.875ZM226.524,18.7a10.076,10.076,0,0,0-5.295,1.441,10.669,10.669,0,0,0-5.174,9.262,10.407,10.407,0,0,0,1.44,5.4,10.961,10.961,0,0,0,3.823,3.851,9.992,9.992,0,0,0,5.206,1.427,8.885,8.885,0,0,0,5.042-1.427,9.45,9.45,0,0,0,3.294-3.866,12.421,12.421,0,0,0,1.163-5.382,12.316,12.316,0,0,0-1.178-5.425,9.579,9.579,0,0,0-3.307-3.854A8.857,8.857,0,0,0,226.524,18.7ZM193.411,44.875a14.261,14.261,0,0,1-3.879-.522,13.627,13.627,0,0,1-3.518-1.566,15.4,15.4,0,0,1-3-2.444,16.017,16.017,0,0,1-2.323-3.157,15.2,15.2,0,0,1-1.488-3.7,16.519,16.519,0,0,1-.5-4.077,15.832,15.832,0,0,1,4.308-10.984,14.769,14.769,0,0,1,4.69-3.337,13.8,13.8,0,0,1,5.706-1.205,13.953,13.953,0,0,1,6.1,1.336,14.224,14.224,0,0,1,4.764,3.72,16.042,16.042,0,0,1,2.97,5.53,18.028,18.028,0,0,1,.722,6.733h-24a10.738,10.738,0,0,0,1.645,4.456,9.674,9.674,0,0,0,3.31,3.1,9.156,9.156,0,0,0,4.484,1.174,8.765,8.765,0,0,0,4.792-1.367,10.269,10.269,0,0,0,3.47-3.749l5.028,1.177a15.49,15.49,0,0,1-2.212,3.554,15.821,15.821,0,0,1-3.109,2.841,13.708,13.708,0,0,1-3.772,1.865A14.077,14.077,0,0,1,193.411,44.875Zm0-26.584a8.835,8.835,0,0,0-4.529,1.205,10.188,10.188,0,0,0-3.4,3.249,10.748,10.748,0,0,0-1.661,4.573H203A9.779,9.779,0,0,0,201.41,22.8a10.538,10.538,0,0,0-3.441-3.279A8.842,8.842,0,0,0,193.411,18.291Zm-59.2,26.584a14.262,14.262,0,0,1-3.877-.522,13.609,13.609,0,0,1-3.518-1.566,15.421,15.421,0,0,1-3-2.444,15.981,15.981,0,0,1-2.322-3.157,15.158,15.158,0,0,1-1.49-3.7,16.517,16.517,0,0,1-.5-4.077,15.855,15.855,0,0,1,4.308-10.984,14.771,14.771,0,0,1,4.691-3.337,13.789,13.789,0,0,1,5.7-1.205,13.954,13.954,0,0,1,6.1,1.336,14.182,14.182,0,0,1,4.763,3.72,16.051,16.051,0,0,1,2.97,5.53,17.977,17.977,0,0,1,.721,6.733h-24a10.692,10.692,0,0,0,1.648,4.456,9.677,9.677,0,0,0,3.308,3.1,9.154,9.154,0,0,0,4.484,1.174,8.782,8.782,0,0,0,4.794-1.367,10.3,10.3,0,0,0,3.47-3.749l5.027,1.177a15.555,15.555,0,0,1-2.213,3.554,15.81,15.81,0,0,1-3.11,2.841,13.712,13.712,0,0,1-3.772,1.865A14.08,14.08,0,0,1,134.214,44.875Zm0-26.584a8.847,8.847,0,0,0-4.529,1.205,10.231,10.231,0,0,0-3.4,3.249,10.774,10.774,0,0,0-1.661,4.573H143.8a9.776,9.776,0,0,0-1.591-4.513,10.5,10.5,0,0,0-3.439-3.279A8.843,8.843,0,0,0,134.214,18.291ZM49.992,44.875a14.262,14.262,0,0,1-3.877-.522A13.6,13.6,0,0,1,42.6,42.786a15.384,15.384,0,0,1-3-2.444,15.979,15.979,0,0,1-2.323-3.157,15.131,15.131,0,0,1-1.489-3.7,16.463,16.463,0,0,1-.5-4.077A15.859,15.859,0,0,1,39.6,18.422a14.764,14.764,0,0,1,4.69-3.337,13.8,13.8,0,0,1,5.706-1.205,14.289,14.289,0,0,1,3.879.521,13.6,13.6,0,0,1,3.517,1.565,15.292,15.292,0,0,1,3,2.449,16,16,0,0,1,2.323,3.169A15.2,15.2,0,0,1,64.2,25.3a16.731,16.731,0,0,1,.5,4.1,15.708,15.708,0,0,1-1.148,6,15.94,15.94,0,0,1-3.161,4.925,14.821,14.821,0,0,1-4.677,3.339A13.757,13.757,0,0,1,49.992,44.875Zm0-26.055a8.873,8.873,0,0,0-4.97,1.455,10.539,10.539,0,0,0-3.5,3.868,11.4,11.4,0,0,0,.028,10.6,10.22,10.22,0,0,0,3.558,3.794,9.081,9.081,0,0,0,4.882,1.4,8.925,8.925,0,0,0,4.985-1.455,10.4,10.4,0,0,0,3.5-3.851,11.327,11.327,0,0,0-.028-10.513,10.535,10.535,0,0,0-3.516-3.853A8.868,8.868,0,0,0,49.992,18.82Zm65.989,25.291h-4.941V27a8.029,8.029,0,0,0-1.058-4.03A8.33,8.33,0,0,0,107.13,20a7.378,7.378,0,0,0-3.97-1.117A7.732,7.732,0,0,0,96.339,22.8,8.267,8.267,0,0,0,95.279,27V44.11H90.339V27A8.292,8.292,0,0,0,89.28,22.8a7.741,7.741,0,0,0-2.868-2.882,7.848,7.848,0,0,0-3.984-1.043A7.415,7.415,0,0,0,78.472,20a8.3,8.3,0,0,0-2.867,2.97A8.036,8.036,0,0,0,74.547,27V44.11H69.608V14.7h4.939v3.677A11.464,11.464,0,0,1,78.472,15.1a11.148,11.148,0,0,1,5.161-1.22A11.639,11.639,0,0,1,89.6,15.466a11.913,11.913,0,0,1,4.263,4.206,11.96,11.96,0,0,1,4.25-4.206,11.365,11.365,0,0,1,2.828-1.19,11.993,11.993,0,0,1,3.1-.4,11.646,11.646,0,0,1,6.028,1.6,12.168,12.168,0,0,1,4.309,4.306,11.675,11.675,0,0,1,1.6,6.03V44.11Zm-85.72,0H25.319V24.524H4.942V44.11H0V2.939H4.942V19.584H25.319V2.939h4.942V44.11Zm244.991,0h-2.366c.7-1.424,1.525-3.1,2.364-4.77v4.77Z" transform="translate(0 14.364)" fill="#fff"/>
      <rect id="Rectangle_130" data-name="Rectangle 130" width="4.146" height="3.977" transform="translate(163.581 44.324)" fill="#fff"/>
      <rect id="Rectangle_131" data-name="Rectangle 131" width="4.146" height="3.977" transform="translate(171.181 44.324)" fill="#fff"/>
      <rect id="Rectangle_132" data-name="Rectangle 132" width="4.146" height="3.977" transform="translate(163.581 37.364)" fill="#fff"/>
      <rect id="Rectangle_133" data-name="Rectangle 133" width="4.146" height="3.977" transform="translate(171.181 37.364)" fill="#fff"/>
      <path id="check-mark-svgrepo-com" d="M17.47,39.23A178.46,178.46,0,0,1,29.6,52.971c4.235-8.423,8.569-16.875,15.721-26.029l-1.927-.883A98.984,98.984,0,0,0,28.583,45.732a107.159,107.159,0,0,0-10.214-8.025Z" transform="translate(240.596 7.838)" fill="#03ffbc"/>
      <path id="Path_41118" data-name="Path 41118" d="M1040.8,334.445" transform="translate(-756.184 -247.076)" fill="none" stroke="#707070" stroke-width="1"/>
      <text id="Powered_by_Telepathy" data-name="Powered by Telepathy" transform="translate(222.817 68.884)" fill="#b5b5b5" font-size="6" font-family="Rubik-Regular, Rubik"><tspan x="-30" y="0">Powered by </tspan><tspan y="0" fill="#fff">Telepathy</tspan></text>
      <path id="Subtraction_10" data-name="Subtraction 10" d="M56.987,79.7H0V19.562L4.942,22.9V74.763H56.987V79.7Zm14.7-54H66.643V21.955L71.7,18.544l-.015,7.162ZM6.835,19.287h0L2.248,16.192,35.665,0l.02.028L68.82,15.6l-4.812,3.246L35.658,5.738,6.836,19.287Z" transform="translate(153.475 0)" fill="#03ffbc"/>
    </g>
    <path id="Path_41572" data-name="Path 41572" d="M-20346.975-2153.779v60.761h57.045v-5.825h-52.223v-51.923Z" transform="translate(20933.75 2394.697)" fill="#fff"/>
  </g>
</svg>
