<svg xmlns="http://www.w3.org/2000/svg" width="234.584" height="71.683" viewBox="0 0 234.584 71.683">
  <g id="Group_7662" data-name="Group 7662" transform="translate(-367 -118.761)">
    <path id="Subtraction_8" data-name="Subtraction 8" d="M213.6,36.818a12.353,12.353,0,0,1-4.922-.989,12.938,12.938,0,0,1-6.779-6.781,12.781,12.781,0,0,1,0-9.856,12.906,12.906,0,0,1,6.779-6.792,12.351,12.351,0,0,1,4.922-.989,10.149,10.149,0,0,1,2.618.326,8.234,8.234,0,0,1,2.257.978,9.8,9.8,0,0,1,3.3,3.426V0h4.054V23.007a51.012,51.012,0,0,0-4.664,6.487c-.062.1-.563.949-.678,1.152-.25-.226-.528-.471-.824-.729a8.371,8.371,0,0,0,.82-1.375,10.189,10.189,0,0,0,.952-4.416,10.1,10.1,0,0,0-.965-4.451,7.855,7.855,0,0,0-2.712-3.162,7.274,7.274,0,0,0-4.115-1.169,8.2,8.2,0,0,0-4.331,1.182,8.914,8.914,0,0,0-3.1,3.172,8.683,8.683,0,0,0-1.159,4.428,8.558,8.558,0,0,0,1.182,4.428,9,9,0,0,0,3.137,3.16,8.2,8.2,0,0,0,4.271,1.17,8.686,8.686,0,0,0,1.479-.123c.995,1.107,1.885,2.124,2.721,3.108A9.268,9.268,0,0,1,213.6,36.818Zm-27.674,0a12.462,12.462,0,0,1-4.971-1,13.106,13.106,0,0,1-4.089-2.775,12.958,12.958,0,0,1-2.761-4.088,12.628,12.628,0,0,1,6.659-16.588,12.222,12.222,0,0,1,4.874-.977,10.332,10.332,0,0,1,2.671.334,8.575,8.575,0,0,1,2.323,1,10.814,10.814,0,0,1,3.474,3.463l-.146-4.127h4.055V36.191h-4.055l-.168-4.078a9.312,9.312,0,0,1-3.125,3.4,7.679,7.679,0,0,1-2.181.978A9.675,9.675,0,0,1,185.928,36.818Zm-.072-21.473a8.265,8.265,0,0,0-4.344,1.182,8.75,8.75,0,0,0-4.245,7.6,8.537,8.537,0,0,0,1.181,4.428,8.99,8.99,0,0,0,3.137,3.16,8.2,8.2,0,0,0,4.271,1.17,7.29,7.29,0,0,0,4.137-1.17,7.751,7.751,0,0,0,2.7-3.172,10.193,10.193,0,0,0,.955-4.416,10.109,10.109,0,0,0-.966-4.451,7.856,7.856,0,0,0-2.714-3.162A7.266,7.266,0,0,0,185.855,15.345ZM158.688,36.818a11.708,11.708,0,0,1-3.183-.429,11.177,11.177,0,0,1-2.886-1.285,12.621,12.621,0,0,1-2.461-2.005,13.121,13.121,0,0,1-1.906-2.591,12.451,12.451,0,0,1-1.221-3.037,13.552,13.552,0,0,1-.407-3.345,12.987,12.987,0,0,1,3.535-9.012,12.123,12.123,0,0,1,3.848-2.738,11.322,11.322,0,0,1,4.682-.989,11.447,11.447,0,0,1,5.006,1.1,11.673,11.673,0,0,1,3.909,3.052,13.173,13.173,0,0,1,2.437,4.537,14.8,14.8,0,0,1,.592,5.524H150.943a8.8,8.8,0,0,0,1.35,3.656,7.934,7.934,0,0,0,2.716,2.546,7.511,7.511,0,0,0,3.68.964,7.192,7.192,0,0,0,3.932-1.122,8.426,8.426,0,0,0,2.847-3.076l4.125.965a12.7,12.7,0,0,1-1.815,2.916,12.973,12.973,0,0,1-2.551,2.331,11.249,11.249,0,0,1-3.1,1.53A11.547,11.547,0,0,1,158.688,36.818Zm0-21.811a7.248,7.248,0,0,0-3.716.989,8.362,8.362,0,0,0-2.787,2.665,8.817,8.817,0,0,0-1.363,3.752h15.731a8.024,8.024,0,0,0-1.3-3.7,8.645,8.645,0,0,0-2.824-2.691A7.253,7.253,0,0,0,158.688,15.007Zm-48.57,21.811a11.7,11.7,0,0,1-3.181-.429,11.164,11.164,0,0,1-2.886-1.285,12.641,12.641,0,0,1-2.461-2.005,13.115,13.115,0,0,1-1.906-2.591,12.432,12.432,0,0,1-1.222-3.037,13.55,13.55,0,0,1-.407-3.345,13.01,13.01,0,0,1,3.535-9.012,12.116,12.116,0,0,1,3.849-2.738,11.312,11.312,0,0,1,4.68-.989,11.449,11.449,0,0,1,5.007,1.1,11.632,11.632,0,0,1,3.908,3.052,13.164,13.164,0,0,1,2.437,4.537,14.738,14.738,0,0,1,.592,5.524H102.373a8.771,8.771,0,0,0,1.352,3.656,7.94,7.94,0,0,0,2.714,2.546,7.511,7.511,0,0,0,3.679.964,7.206,7.206,0,0,0,3.934-1.122,8.447,8.447,0,0,0,2.847-3.076l4.125.965a12.759,12.759,0,0,1-1.815,2.916,12.971,12.971,0,0,1-2.552,2.331,11.253,11.253,0,0,1-3.095,1.53A11.549,11.549,0,0,1,110.118,36.818Zm0-21.811A7.258,7.258,0,0,0,106.4,16a8.4,8.4,0,0,0-2.787,2.665,8.84,8.84,0,0,0-1.362,3.752h15.732a8.026,8.026,0,0,0-1.3-3.7,8.618,8.618,0,0,0-2.822-2.691A7.258,7.258,0,0,0,110.118,15.007Zm-69.1,21.811a11.7,11.7,0,0,1-3.181-.429A11.164,11.164,0,0,1,34.95,35.1,12.624,12.624,0,0,1,32.488,33.1a13.094,13.094,0,0,1-1.906-2.591,12.391,12.391,0,0,1-1.222-3.037,13.5,13.5,0,0,1-.408-3.345,13.013,13.013,0,0,1,3.534-9.012,12.122,12.122,0,0,1,3.848-2.738,11.324,11.324,0,0,1,4.682-.989,11.722,11.722,0,0,1,3.182.428A11.156,11.156,0,0,1,47.084,13.1a12.531,12.531,0,0,1,2.461,2.009,13.1,13.1,0,0,1,1.906,2.6,12.472,12.472,0,0,1,1.223,3.052,13.726,13.726,0,0,1,.408,3.366,12.9,12.9,0,0,1-.942,4.922,13.093,13.093,0,0,1-2.593,4.041,12.167,12.167,0,0,1-3.838,2.739A11.288,11.288,0,0,1,41.017,36.818Zm0-21.377a7.28,7.28,0,0,0-4.078,1.194,8.647,8.647,0,0,0-2.871,3.173,9.355,9.355,0,0,0,.023,8.7,8.384,8.384,0,0,0,2.919,3.113,7.453,7.453,0,0,0,4.006,1.145,7.323,7.323,0,0,0,4.09-1.194,8.532,8.532,0,0,0,2.87-3.16,9.293,9.293,0,0,0-.023-8.625,8.65,8.65,0,0,0-2.884-3.161A7.278,7.278,0,0,0,41.017,15.441Zm54.142,20.75H91.105V22.149a6.589,6.589,0,0,0-.868-3.306A6.835,6.835,0,0,0,87.9,16.406a6.052,6.052,0,0,0-3.257-.917,6.344,6.344,0,0,0-5.6,3.22,6.789,6.789,0,0,0-.87,3.439V36.191H74.121V22.149a6.8,6.8,0,0,0-.869-3.439A6.347,6.347,0,0,0,70.9,16.346a6.44,6.44,0,0,0-3.269-.856,6.085,6.085,0,0,0-3.246.917,6.8,6.8,0,0,0-2.353,2.437,6.59,6.59,0,0,0-.868,3.306V36.191H57.111V12.063h4.053v3.017a9.41,9.41,0,0,1,3.22-2.691,9.146,9.146,0,0,1,4.234-1,9.55,9.55,0,0,1,4.9,1.3,9.774,9.774,0,0,1,3.5,3.451A9.814,9.814,0,0,1,80.5,12.69a9.336,9.336,0,0,1,2.32-.976,9.84,9.84,0,0,1,2.543-.325A9.556,9.556,0,0,1,90.31,12.7a9.979,9.979,0,0,1,3.535,3.533,9.577,9.577,0,0,1,1.314,4.947V36.191Zm-70.331,0H20.773V20.121H4.054v16.07H0V2.411H4.054V16.068H20.773V2.411h4.054v33.78Zm201.008,0H223.9c.572-1.168,1.251-2.546,1.94-3.914v3.914Z" transform="translate(367 130.546)" fill="#fff"/>
    <rect id="Rectangle_130" data-name="Rectangle 130" width="3.402" height="3.263" transform="translate(501.213 155.127)" fill="#fff"/>
    <rect id="Rectangle_131" data-name="Rectangle 131" width="3.402" height="3.263" transform="translate(507.449 155.127)" fill="#fff"/>
    <rect id="Rectangle_132" data-name="Rectangle 132" width="3.402" height="3.263" transform="translate(501.213 149.417)" fill="#fff"/>
    <rect id="Rectangle_133" data-name="Rectangle 133" width="3.402" height="3.263" transform="translate(507.449 149.417)" fill="#fff"/>
    <path id="check-mark-svgrepo-com" d="M17.47,36.865A146.421,146.421,0,0,1,27.42,48.14c3.475-6.911,7.031-13.846,12.9-21.356l-1.581-.724A81.214,81.214,0,0,0,26.588,42.2a87.921,87.921,0,0,0-8.38-6.584Z" transform="translate(561.266 120.514)" fill="#fff"/>
    <path id="Path_41118" data-name="Path 41118" d="M1040.8,334.445" transform="translate(-440.281 -144)" fill="none" stroke="#707070" stroke-width="1"/>
    <text id="Powered_by_Telepathy" data-name="Powered by Telepathy" transform="translate(550.201 175.356)" fill="#b5b5b5" font-size="5" font-family="Rubik-Regular, Rubik"><tspan x="-25" y="0">Powered by </tspan><tspan y="0" fill="#fff">Telepathy</tspan></text>
    <path id="Subtraction_10" data-name="Subtraction 10" d="M46.756,65.393H0V16.05l4.055,2.736V61.341h42.7v4.052Zm12.06-44.3H54.678V18.013l4.15-2.8-.012,5.876ZM5.608,15.824h0L1.845,13.285,29.262,0l.016.023L56.465,12.8l-3.949,2.663L29.256,4.708,5.608,15.824Z" transform="translate(492.922 118.761)" fill="#fff"/>
  </g>
</svg>
