<svg xmlns="http://www.w3.org/2000/svg" width="172.651" height="160.703" viewBox="0 0 172.651 160.703">
  <g id="Group_7697" data-name="Group 7697" transform="translate(-677.908 -4477.648)">
    <g id="Group_7696" data-name="Group 7696">
      <g id="Group_7695" data-name="Group 7695">
        <g id="_Group_" data-name="&lt;Group&gt;" transform="translate(793.613 4478.137)">
          <path id="_Path_" data-name="&lt;Path&gt;" d="M783.664,22.3q-2.241.475-4.464.95" transform="translate(-770.557 -22.3)" fill="none" stroke="#f1f1f1" stroke-width="1"/>
          <path id="_Path_2" data-name="&lt;Path&gt;" d="M838.521,81.9,829.1,83.894" transform="translate(-810.979 -70.579)" fill="none" stroke="#f1f1f1" stroke-width="1"/>
          <path id="_Path_3" data-name="&lt;Path&gt;" d="M752.2,55.7l-18.5,3.932" transform="translate(-733.7 -49.356)" fill="none" stroke="#f1f1f1" stroke-width="1"/>
          <path id="_Path_4" data-name="&lt;Path&gt;" d="M851.555,40.1,839,42.759" transform="translate(-818.999 -36.719)" fill="none" stroke="#f1f1f1" stroke-width="1"/>
        </g>
        <g id="_Group_2" data-name="&lt;Group&gt;" transform="translate(811.715 4560.593)">
          <path id="_Path_5" data-name="&lt;Path&gt;" d="M892.616,456.4,874.4,460.275" transform="translate(-865.776 -456.4)" fill="none" stroke="#f1f1f1" stroke-width="1"/>
          <path id="_Path_6" data-name="&lt;Path&gt;" d="M933.8,531.4l-9.4,1.994" transform="translate(-906.279 -517.154)" fill="none" stroke="#f1f1f1" stroke-width="1"/>
          <path id="_Path_7" data-name="&lt;Path&gt;" d="M849.837,502.6c-6.952,1.577-13.942,3.305-20.837,4.407" transform="translate(-829 -493.825)" fill="none" stroke="#f1f1f1" stroke-width="1"/>
          <path id="_Path_8" data-name="&lt;Path&gt;" d="M955.229,494.4q-2.564.513-5.129,1.083" transform="translate(-927.098 -487.182)" fill="none" stroke="#f1f1f1" stroke-width="1"/>
        </g>
      </g>
      <g id="Group_7694" data-name="Group 7694" transform="translate(17)">
        <g id="_Group_3" data-name="&lt;Group&gt;" transform="translate(717.274 4567.165)">
          <g id="_Group_4" data-name="&lt;Group&gt;" transform="translate(23.135)">
            <path id="_Path_9" data-name="&lt;Path&gt;" d="M490.487,511.8l-32.481,6.876-4.407-20.8L486.081,491Z" transform="translate(-453.6 -491)" fill="#a4a4a4"/>
            <path id="_Path_10" data-name="&lt;Path&gt;" d="M453.6,497.876l18.444,6.952L486.081,491" transform="translate(-453.6 -491)" fill="none" stroke="#fff" stroke-width="1"/>
          </g>
          <path id="_Path_11" data-name="&lt;Path&gt;" d="M395.516,561.8,377.3,565.656" transform="translate(-368.658 -548.352)" fill="none" stroke="#fff" stroke-width="1"/>
          <path id="_Path_12" data-name="&lt;Path&gt;" d="M436.621,636.7l-9.421,1.994" transform="translate(-409.079 -609.025)" fill="none" stroke="#fff" stroke-width="1"/>
          <path id="_Path_13" data-name="&lt;Path&gt;" d="M364.357,594.8,331.8,601.714" transform="translate(-331.8 -575.084)" fill="none" stroke="#fff" stroke-width="1"/>
        </g>
        <g id="_Group_5" data-name="&lt;Group&gt;" transform="translate(661.012 4534.475)">
          <g id="_Group_6" data-name="&lt;Group&gt;" transform="translate(23.135)">
            <path id="_Path_14" data-name="&lt;Path&gt;" d="M490.487,511.8l-32.481,6.876-4.407-20.8L486.081,491Z" transform="translate(-453.6 -491)" fill="#a4a4a4"/>
            <path id="_Path_15" data-name="&lt;Path&gt;" d="M453.6,497.876l18.444,6.952L486.081,491" transform="translate(-453.6 -491)" fill="none" stroke="#fff" stroke-width="1"/>
          </g>
          <path id="_Path_16" data-name="&lt;Path&gt;" d="M395.516,561.8,377.3,565.656" transform="translate(-368.658 -548.352)" fill="none" stroke="#fff" stroke-width="1"/>
          <path id="_Path_17" data-name="&lt;Path&gt;" d="M436.621,636.7l-9.421,1.994" transform="translate(-409.079 -609.025)" fill="none" stroke="#fff" stroke-width="1"/>
          <path id="_Path_18" data-name="&lt;Path&gt;" d="M364.357,594.8,331.8,601.714" transform="translate(-331.8 -575.084)" fill="none" stroke="#fff" stroke-width="1"/>
        </g>
        <g id="_Group_7" data-name="&lt;Group&gt;" transform="translate(755.453 4514.474)">
          <g id="_Group_8" data-name="&lt;Group&gt;" transform="translate(23.135)">
            <path id="_Path_19" data-name="&lt;Path&gt;" d="M490.487,511.8l-32.481,6.876-4.407-20.8L486.081,491Z" transform="translate(-453.6 -491)" fill="#a4a4a4"/>
            <path id="_Path_20" data-name="&lt;Path&gt;" d="M453.6,497.876l18.444,6.952L486.081,491" transform="translate(-453.6 -491)" fill="none" stroke="#fff" stroke-width="1"/>
          </g>
          <path id="_Path_21" data-name="&lt;Path&gt;" d="M395.516,561.8,377.3,565.656" transform="translate(-368.658 -548.352)" fill="none" stroke="#fff" stroke-width="1"/>
          <path id="_Path_22" data-name="&lt;Path&gt;" d="M436.621,636.7l-9.421,1.994" transform="translate(-409.079 -609.025)" fill="none" stroke="#fff" stroke-width="1"/>
          <path id="_Path_23" data-name="&lt;Path&gt;" d="M364.357,594.8,331.8,601.714" transform="translate(-331.8 -575.084)" fill="none" stroke="#fff" stroke-width="1"/>
        </g>
        <g id="_Group_9" data-name="&lt;Group&gt;" transform="translate(699.191 4481.784)">
          <g id="_Group_10" data-name="&lt;Group&gt;" transform="translate(23.135)">
            <path id="_Path_24" data-name="&lt;Path&gt;" d="M490.487,511.8l-32.481,6.876-4.407-20.8L486.081,491Z" transform="translate(-453.6 -491)" fill="#a4a4a4"/>
            <path id="_Path_25" data-name="&lt;Path&gt;" d="M453.6,497.876l18.444,6.952L486.081,491" transform="translate(-453.6 -491)" fill="none" stroke="#fff" stroke-width="1"/>
          </g>
          <path id="_Path_26" data-name="&lt;Path&gt;" d="M395.516,561.8,377.3,565.656" transform="translate(-368.658 -548.352)" fill="none" stroke="#fff" stroke-width="1"/>
          <path id="_Path_27" data-name="&lt;Path&gt;" d="M436.621,636.7l-9.421,1.994" transform="translate(-409.079 -609.025)" fill="none" stroke="#fff" stroke-width="1"/>
          <path id="_Path_28" data-name="&lt;Path&gt;" d="M364.357,594.8,331.8,601.714" transform="translate(-331.8 -575.084)" fill="none" stroke="#fff" stroke-width="1"/>
        </g>
        <g id="_Group_11" data-name="&lt;Group&gt;" transform="translate(773.536 4599.854)">
          <g id="_Group_12" data-name="&lt;Group&gt;" transform="translate(23.135)">
            <path id="_Path_29" data-name="&lt;Path&gt;" d="M490.487,511.8l-32.481,6.876-4.407-20.8L486.081,491Z" transform="translate(-453.6 -491)" fill="#a4a4a4"/>
            <path id="_Path_30" data-name="&lt;Path&gt;" d="M453.6,497.876l18.444,6.952L486.081,491" transform="translate(-453.6 -491)" fill="none" stroke="#fff" stroke-width="1"/>
          </g>
          <path id="_Path_31" data-name="&lt;Path&gt;" d="M395.516,561.8,377.3,565.656" transform="translate(-368.658 -548.352)" fill="none" stroke="#fff" stroke-width="1"/>
          <path id="_Path_32" data-name="&lt;Path&gt;" d="M436.621,636.7l-9.421,1.994" transform="translate(-409.079 -609.025)" fill="none" stroke="#fff" stroke-width="1"/>
          <path id="_Path_33" data-name="&lt;Path&gt;" d="M364.357,594.8,331.8,601.714" transform="translate(-331.8 -575.084)" fill="none" stroke="#fff" stroke-width="1"/>
        </g>
        <g id="_Group_13" data-name="&lt;Group&gt;" transform="translate(663.557 4608.193)">
          <g id="_Group_14" data-name="&lt;Group&gt;" transform="translate(23.135)">
            <path id="_Path_34" data-name="&lt;Path&gt;" d="M490.487,511.8l-32.481,6.876-4.407-20.8L486.081,491Z" transform="translate(-453.6 -491)" fill="#a4a4a4"/>
            <path id="_Path_35" data-name="&lt;Path&gt;" d="M453.6,497.876l18.444,6.952L486.081,491" transform="translate(-453.6 -491)" fill="none" stroke="#fff" stroke-width="1"/>
          </g>
          <path id="_Path_36" data-name="&lt;Path&gt;" d="M395.516,561.8,377.3,565.656" transform="translate(-368.658 -548.352)" fill="none" stroke="#fff" stroke-width="1"/>
          <path id="_Path_37" data-name="&lt;Path&gt;" d="M436.621,636.7l-9.421,1.994" transform="translate(-409.079 -609.025)" fill="none" stroke="#fff" stroke-width="1"/>
          <path id="_Path_38" data-name="&lt;Path&gt;" d="M364.357,594.8,331.8,601.714" transform="translate(-331.8 -575.084)" fill="none" stroke="#fff" stroke-width="1"/>
        </g>
      </g>
    </g>
  </g>
</svg>
