<svg xmlns="http://www.w3.org/2000/svg" width="179.036" height="160.703" viewBox="0 0 179.036 160.703">
  <g id="Envelopes" transform="translate(0.104 0.489)" style="mix-blend-mode: luminosity;isolation: isolate">
    <g id="_Group_" data-name="&lt;Group&gt;" transform="translate(0)">
      <g id="_Grid_Repeat_00000001640726536942399370000008061166973999876772_" data-name="&lt;Grid Repeat&gt; 00000001640726536942399370000008061166973999876772 " transform="translate(38.179 3.647)">
        <g id="_Group_2" data-name="&lt;Group&gt;">
          <g id="_Group_3" data-name="&lt;Group&gt;" transform="translate(23.116)">
            <path id="_Path_" data-name="&lt;Path&gt;" d="M395.206,62.3l-32.5,6.9L358.3,48.4l32.5-6.9Z" transform="translate(-358.3 -41.5)" fill="#92e3a9"/>
            <path id="_Path_2" data-name="&lt;Path&gt;" d="M358.3,48.4l18.463,6.952L390.8,41.5" transform="translate(-358.3 -41.5)" fill="none" stroke="#263238" stroke-width="1"/>
          </g>
          <path id="_Path_3" data-name="&lt;Path&gt;" d="M300.235,112.3,282,116.156" transform="translate(-273.376 -98.852)" fill="none" stroke="#263238" stroke-width="1"/>
          <path id="_Path_4" data-name="&lt;Path&gt;" d="M336.008,193.3l-4.008.855" transform="translate(-313.879 -164.466)" fill="none" stroke="#263238" stroke-width="1"/>
          <path id="_Path_5" data-name="&lt;Path&gt;" d="M363.841,187.3l-4.141.874" transform="translate(-336.318 -159.606)" fill="none" stroke="#263238" stroke-width="1"/>
          <path id="_Path_6" data-name="&lt;Path&gt;" d="M242.222,175.4l-5.622,1.2" transform="translate(-236.6 -149.966)" fill="none" stroke="#263238" stroke-width="1"/>
          <path id="_Path_7" data-name="&lt;Path&gt;" d="M300.83,145.4l-25.13,5.318" transform="translate(-268.273 -125.665)" fill="none" stroke="#263238" stroke-width="1"/>
        </g>
      </g>
      <g id="_Grid_Repeat_00000114761614917885442910000000752638331631276963_" data-name="&lt;Grid Repeat&gt; 00000114761614917885442910000000752638331631276963 " transform="translate(132.601)">
        <g id="_Group_4" data-name="&lt;Group&gt;">
          <path id="_Path_8" data-name="&lt;Path&gt;" d="M783.664,22.3q-2.241.475-4.464.95" transform="translate(-770.557 -22.3)" fill="none" stroke="#263238" stroke-width="1"/>
          <path id="_Path_9" data-name="&lt;Path&gt;" d="M838.521,81.9,829.1,83.894" transform="translate(-810.979 -70.579)" fill="none" stroke="#263238" stroke-width="1"/>
          <path id="_Path_10" data-name="&lt;Path&gt;" d="M752.2,55.7l-18.5,3.932" transform="translate(-733.7 -49.356)" fill="none" stroke="#263238" stroke-width="1"/>
          <path id="_Path_11" data-name="&lt;Path&gt;" d="M851.555,40.1,839,42.759" transform="translate(-818.999 -36.719)" fill="none" stroke="#263238" stroke-width="1"/>
        </g>
      </g>
      <g id="_Grid_Repeat_00000166671450405655008450000015530136579440188841_" data-name="&lt;Grid Repeat&gt; 00000166671450405655008450000015530136579440188841 " transform="translate(0 56.338)">
        <g id="_Group_5" data-name="&lt;Group&gt;" transform="translate(0 0)">
          <g id="_Group_6" data-name="&lt;Group&gt;" transform="translate(23.135)">
            <path id="_Path_12" data-name="&lt;Path&gt;" d="M194.287,339.7l-32.481,6.876-4.407-20.8,32.481-6.876Z" transform="translate(-157.4 -318.9)" fill="#92e3a9"/>
            <path id="_Path_13" data-name="&lt;Path&gt;" d="M157.4,325.776l18.444,6.971L189.881,318.9" transform="translate(-157.4 -318.9)" fill="none" stroke="#263238" stroke-width="1"/>
          </g>
          <path id="_Path_14" data-name="&lt;Path&gt;" d="M99.316,389.7,81.1,393.556" transform="translate(-72.457 -376.252)" fill="none" stroke="#263238" stroke-width="1"/>
          <path id="_Path_15" data-name="&lt;Path&gt;" d="M140.421,464.6,131,466.594" transform="translate(-112.879 -436.925)" fill="none" stroke="#263238" stroke-width="1"/>
          <path id="_Path_16" data-name="&lt;Path&gt;" d="M42.21,451.7l-6.61,1.406" transform="translate(-35.6 -426.475)" fill="none" stroke="#263238" stroke-width="1"/>
          <path id="_Path_17" data-name="&lt;Path&gt;" d="M104.285,422.8,80.2,427.91" transform="translate(-71.728 -403.065)" fill="none" stroke="#263238" stroke-width="1"/>
        </g>
      </g>
      <g id="_Grid_Repeat_00000066515958837348348780000016970334271928655523_" data-name="&lt;Grid Repeat&gt; 00000066515958837348348780000016970334271928655523 " transform="translate(94.441 36.337)">
        <g id="_Group_7" data-name="&lt;Group&gt;">
          <g id="_Group_8" data-name="&lt;Group&gt;" transform="translate(23.116)">
            <path id="_Path_18" data-name="&lt;Path&gt;" d="M691.406,234.4l-32.5,6.876-4.407-20.8L687,213.6Z" transform="translate(-654.5 -213.6)" fill="#92e3a9"/>
            <path id="_Path_19" data-name="&lt;Path&gt;" d="M654.5,220.476l18.444,6.952L687,213.6" transform="translate(-654.5 -213.6)" fill="none" stroke="#263238" stroke-width="1"/>
          </g>
          <path id="_Path_20" data-name="&lt;Path&gt;" d="M596.416,284.4,578.2,288.256" transform="translate(-569.576 -270.952)" fill="none" stroke="#263238" stroke-width="1"/>
          <path id="_Path_21" data-name="&lt;Path&gt;" d="M637.6,359.3l-9.4,1.994" transform="translate(-610.079 -331.625)" fill="none" stroke="#263238" stroke-width="1"/>
          <path id="_Path_22" data-name="&lt;Path&gt;" d="M565.357,317.5,532.8,324.4" transform="translate(-532.8 -297.765)" fill="none" stroke="#263238" stroke-width="1"/>
        </g>
      </g>
      <g id="_Grid_Repeat_00000104680976973595601670000003472713315468574897_" data-name="&lt;Grid Repeat&gt; 00000104680976973595601670000003472713315468574897 " transform="translate(56.262 89.028)">
        <g id="_Group_9" data-name="&lt;Group&gt;">
          <g id="_Group_10" data-name="&lt;Group&gt;" transform="translate(23.135)">
            <path id="_Path_23" data-name="&lt;Path&gt;" d="M490.487,511.8l-32.481,6.876-4.407-20.8L486.081,491Z" transform="translate(-453.6 -491)" fill="#92e3a9"/>
            <path id="_Path_24" data-name="&lt;Path&gt;" d="M453.6,497.876l18.444,6.952L486.081,491" transform="translate(-453.6 -491)" fill="none" stroke="#263238" stroke-width="1"/>
          </g>
          <path id="_Path_25" data-name="&lt;Path&gt;" d="M395.516,561.8,377.3,565.656" transform="translate(-368.658 -548.352)" fill="none" stroke="#263238" stroke-width="1"/>
          <path id="_Path_26" data-name="&lt;Path&gt;" d="M436.621,636.7l-9.421,1.994" transform="translate(-409.079 -609.025)" fill="none" stroke="#263238" stroke-width="1"/>
          <path id="_Path_27" data-name="&lt;Path&gt;" d="M364.357,594.8,331.8,601.714" transform="translate(-331.8 -575.084)" fill="none" stroke="#263238" stroke-width="1"/>
        </g>
      </g>
      <g id="_Grid_Repeat_00000024696629716844747920000008337740033108507560_" data-name="&lt;Grid Repeat&gt; 00000024696629716844747920000008337740033108507560 " transform="translate(150.703 82.455)">
        <g id="_Group_11" data-name="&lt;Group&gt;">
          <path id="_Path_28" data-name="&lt;Path&gt;" d="M892.616,456.4,874.4,460.275" transform="translate(-865.776 -456.4)" fill="none" stroke="#263238" stroke-width="1"/>
          <path id="_Path_29" data-name="&lt;Path&gt;" d="M933.8,531.4l-9.4,1.994" transform="translate(-906.279 -517.154)" fill="none" stroke="#263238" stroke-width="1"/>
          <path id="_Path_30" data-name="&lt;Path&gt;" d="M849.837,502.6c-6.952,1.577-13.942,3.305-20.837,4.407" transform="translate(-829 -493.825)" fill="none" stroke="#263238" stroke-width="1"/>
          <path id="_Path_31" data-name="&lt;Path&gt;" d="M955.229,494.4q-2.564.513-5.129,1.083" transform="translate(-927.098 -487.182)" fill="none" stroke="#263238" stroke-width="1"/>
        </g>
      </g>
      <g id="_Grid_Repeat_00000039819198706413530300000002129467407876680609_" data-name="&lt;Grid Repeat&gt; 00000039819198706413530300000002129467407876680609 " transform="translate(2.545 130.037)">
        <g id="_Group_12" data-name="&lt;Group&gt;">
          <g id="_Group_13" data-name="&lt;Group&gt;" transform="translate(23.135)">
            <path id="_Path_32" data-name="&lt;Path&gt;" d="M207.687,727.7l-32.481,6.895L170.8,713.8l32.481-6.9Z" transform="translate(-170.8 -706.9)" fill="#92e3a9"/>
            <path id="_Path_33" data-name="&lt;Path&gt;" d="M170.8,713.8l18.444,6.952L203.281,706.9" transform="translate(-170.8 -706.9)" fill="none" stroke="#263238" stroke-width="1"/>
          </g>
          <path id="_Path_34" data-name="&lt;Path&gt;" d="M112.716,777.7,94.5,781.575" transform="translate(-85.857 -764.252)" fill="none" stroke="#263238" stroke-width="1"/>
          <path id="_Path_35" data-name="&lt;Path&gt;" d="M153.821,852.7l-9.421,1.994" transform="translate(-126.279 -825.006)" fill="none" stroke="#263238" stroke-width="1"/>
          <path id="_Path_36" data-name="&lt;Path&gt;" d="M81.557,810.8,49,817.7" transform="translate(-49 -791.065)" fill="none" stroke="#263238" stroke-width="1"/>
        </g>
      </g>
      <g id="_Grid_Repeat_00000153684982078670613560000018164561568087717536_" data-name="&lt;Grid Repeat&gt; 00000153684982078670613560000018164561568087717536 " transform="translate(112.524 121.698)">
        <g id="_Group_14" data-name="&lt;Group&gt;">
          <g id="_Group_15" data-name="&lt;Group&gt;" transform="translate(23.135)">
            <path id="_Path_37" data-name="&lt;Path&gt;" d="M786.688,683.8l-32.481,6.9L749.8,669.9l32.481-6.9Z" transform="translate(-749.8 -663)" fill="#92e3a9"/>
            <path id="_Path_38" data-name="&lt;Path&gt;" d="M749.8,669.895l18.444,6.952L782.281,663" transform="translate(-749.8 -663)" fill="none" stroke="#263238" stroke-width="1"/>
          </g>
          <path id="_Path_39" data-name="&lt;Path&gt;" d="M691.716,733.8,673.5,737.656" transform="translate(-664.857 -720.352)" fill="none" stroke="#263238" stroke-width="1"/>
          <path id="_Path_40" data-name="&lt;Path&gt;" d="M732.821,808.8l-9.421,1.994" transform="translate(-705.279 -781.106)" fill="none" stroke="#263238" stroke-width="1"/>
          <path id="_Path_41" data-name="&lt;Path&gt;" d="M660.557,766.9,628,773.8" transform="translate(-628 -747.165)" fill="none" stroke="#263238" stroke-width="1"/>
        </g>
      </g>
    </g>
  </g>
</svg>
