<svg xmlns="http://www.w3.org/2000/svg" width="97" height="97" viewBox="0 0 97 97">
  <path id="chart--sunburst_1_" d="M48.64,96.64A47.685,47.685,0,0,1,14.7,82.581a1.126,1.126,0,0,1,0-1.594L24.977,70.712a32.273,32.273,0,0,1-8.694-20.95H1.765A1.124,1.124,0,0,1,.64,48.637,47.675,47.675,0,0,1,14.7,14.7a1.128,1.128,0,0,1,.291-.209c.578-.291.709-.334,11.575,10.491a32.262,32.262,0,0,1,20.953-8.7V1.765A1.124,1.124,0,0,1,48.64.64a48.052,48.052,0,0,1,48,48,1.124,1.124,0,0,1-1.125,1.125H81A32.419,32.419,0,0,1,49.765,81V95.515A1.124,1.124,0,0,1,48.64,96.64ZM17.1,81.777a45.409,45.409,0,0,0,30.419,12.6V81a32.27,32.27,0,0,1-20.95-8.691ZM49.765,65.352V78.746A30.166,30.166,0,0,0,78.746,49.765H65.353A16.778,16.778,0,0,1,49.765,65.352ZM28.159,70.712a30.019,30.019,0,0,0,19.356,8.031V65.349a16.678,16.678,0,0,1-9.894-4.1ZM18.537,49.765a30.012,30.012,0,0,0,8.031,19.356l9.466-9.462a16.693,16.693,0,0,1-4.106-9.894ZM48.64,34.14a14.5,14.5,0,1,0,14.5,14.5A14.516,14.516,0,0,0,48.64,34.14ZM81,47.515H94.377A45.811,45.811,0,0,0,49.765,2.9V16.284A32.422,32.422,0,0,1,81,47.515Zm-15.644,0H78.746A30.163,30.163,0,0,0,49.765,18.537V31.928A16.778,16.778,0,0,1,65.352,47.515Zm-46.816,0H31.928a16.7,16.7,0,0,1,4.106-9.894c-1.537-1.538-5.425-5.422-9.466-9.466A30.027,30.027,0,0,0,18.537,47.515Zm-15.634,0H16.284a32.258,32.258,0,0,1,8.694-20.947c-3.994-3.991-7.853-7.853-9.475-9.472A45.415,45.415,0,0,0,2.9,47.515ZM28.156,26.571c2.588,2.581,5.7,5.7,9.469,9.463a16.693,16.693,0,0,1,9.894-4.106V18.537A30,30,0,0,0,28.156,26.571Z" transform="translate(-0.14 -0.14)" fill="#fff" stroke="#000" stroke-width="1"/>
</svg>
