<svg xmlns="http://www.w3.org/2000/svg" width="70" height="64" viewBox="0 0 70 64">
  <g id="Group_7681" data-name="Group 7681" transform="translate(-616 -3929)">
    <g id="Group_7680" data-name="Group 7680">
      <g id="customer-service-svgrepo-com" transform="translate(619.406 3929.406)">
        <path id="customer--service_2_" d="M61.3,60.589H59.878c0-12.7-9.433-24.153-22.43-27.234a.711.711,0,0,1-.124-1.341,15.737,15.737,0,0,0,6.52-5.4l1.169.812a17.174,17.174,0,0,1-5.436,5.027C52.266,36.278,61.3,47.833,61.3,60.589Zm-59.238,0H.64c0-12.756,9.032-24.311,21.725-28.134A17.071,17.071,0,1,1,44.117,6.821l-1.1.908a15.65,15.65,0,1,0-18.4,24.284.711.711,0,0,1-.124,1.341C11.494,36.436,2.062,47.888,2.062,60.589ZM36.894,25.757a2.685,2.685,0,1,1,2.583-3.422,7.2,7.2,0,0,0,6.579-7.162V11.224H47.48v3.949a8.623,8.623,0,0,1-7.989,8.588A2.692,2.692,0,0,1,36.894,25.757Zm0-3.949a1.264,1.264,0,1,0,1.264,1.264A1.265,1.265,0,0,0,36.894,21.808Z" transform="translate(0.624 0.624)" fill="#fff"/>
        <rect id="_Transparent_Rectangle" width="64" height="64" transform="translate(-0.406 -0.406)" fill="none"/>
      </g>
    </g>
    <rect id="Rectangle_147" data-name="Rectangle 147" width="70" height="1" rx="0.5" transform="translate(616 3990)" fill="#fff"/>
  </g>
</svg>
