<svg xmlns="http://www.w3.org/2000/svg" width="90.5" height="96" viewBox="0 0 90.5 96">
  <path id="devops_1_" d="M53.192,96.64h-12.6a1.137,1.137,0,0,1-.983-.566L33.3,85.249a1.116,1.116,0,0,1,0-1.122L39.6,73.3a1.14,1.14,0,0,1,.983-.566H52.537l9.126-15.675a1.134,1.134,0,0,1,1.547-.412,1.117,1.117,0,0,1,.416,1.534L54.5,73.862l5.974,10.263a1.116,1.116,0,0,1,0,1.122l-6.3,10.825A1.125,1.125,0,0,1,53.192,96.64ZM41.243,94.39H52.537l5.647-9.7-5.647-9.7H41.243L35.6,84.69ZM84.7,78.618H72.1a1.137,1.137,0,0,1-.983-.566l-6.3-10.828a1.116,1.116,0,0,1,0-1.122L70.788,55.84,61.662,40.165a1.117,1.117,0,0,1,.416-1.537,1.135,1.135,0,0,1,1.547.409l9.126,15.675H84.7a1.137,1.137,0,0,1,.983.566l6.3,10.825a1.116,1.116,0,0,1,0,1.122l-6.3,10.828A1.144,1.144,0,0,1,84.7,78.618ZM72.754,76.365H84.048l5.647-9.7-5.647-9.7H72.754l-5.647,9.7ZM21.681,78.618H9.077a1.137,1.137,0,0,1-.983-.566l-6.3-10.828a1.116,1.116,0,0,1,0-1.122l6.3-10.825a1.144,1.144,0,0,1,.983-.566h12.6a1.137,1.137,0,0,1,.983.566l5.975,10.259H46.89a1.125,1.125,0,1,1,0,2.25H28.639L22.664,78.049A1.14,1.14,0,0,1,21.681,78.618ZM9.732,76.365H21.026l5.647-9.7-5.647-9.7H9.732l-5.647,9.7Zm21.4-17.559a1.124,1.124,0,0,1-.983-.566L21.026,42.565H9.077A1.134,1.134,0,0,1,8.093,42l-6.3-10.825a1.122,1.122,0,0,1,0-1.125l6.3-10.825a1.141,1.141,0,0,1,.983-.563h12.6a1.134,1.134,0,0,1,.983.563l6.3,10.825a1.122,1.122,0,0,1,0,1.125L22.992,41.44l9.126,15.678a1.131,1.131,0,0,1-.983,1.688ZM9.732,40.315H21.026l5.647-9.7-5.647-9.7H9.732l-5.647,9.7ZM84.7,42.565H72.1A1.134,1.134,0,0,1,71.116,42L65.141,31.737H46.89a1.125,1.125,0,1,1,0-2.25H65.141l5.974-10.263a1.137,1.137,0,0,1,.983-.563H84.7a1.134,1.134,0,0,1,.983.563l6.3,10.825a1.121,1.121,0,0,1,0,1.125L85.687,42A1.131,1.131,0,0,1,84.7,42.565Zm-11.949-2.25H84.048l5.647-9.7-5.647-9.7H72.754l-5.647,9.7Zm-41.62.463a1.127,1.127,0,0,1-.983-1.687l9.126-15.675L33.3,13.153a1.122,1.122,0,0,1,0-1.125L39.6,1.2A1.134,1.134,0,0,1,40.588.64h12.6a1.134,1.134,0,0,1,.983.562l6.3,10.825a1.122,1.122,0,0,1,0,1.125l-6.3,10.825a1.134,1.134,0,0,1-.983.563H41.243L32.118,40.218A1.138,1.138,0,0,1,31.134,40.778ZM41.243,22.29H52.537l5.647-9.7-5.647-9.7H41.243L35.6,12.59Z" transform="translate(-1.64 -0.64)" fill="#fff"/>
</svg>
