<svg id="face-satisfied-svgrepo-com" xmlns="http://www.w3.org/2000/svg" width="64" height="64" viewBox="0 0 64 64">
  <path id="face--satisfied_1_" d="M21.281,25.875a1.531,1.531,0,1,1-1.531-1.531A1.532,1.532,0,0,1,21.281,25.875ZM44.25,24.344a1.531,1.531,0,1,0,1.531,1.531A1.532,1.532,0,0,0,44.25,24.344ZM32,63.36A31.36,31.36,0,1,1,63.36,32,31.394,31.394,0,0,1,32,63.36ZM32,2.11A29.89,29.89,0,1,0,61.89,32,29.923,29.923,0,0,0,32,2.11Zm0,44.917a15.913,15.913,0,0,1-12.86-6.454l1.223-.815a14.582,14.582,0,0,0,23.279,0l1.223.815A15.929,15.929,0,0,1,32,47.027Z" transform="translate(0 0)" fill="#fff"/>
  <rect id="_Transparent_Rectangle" width="64" height="64" fill="none"/>
</svg>
