<svg xmlns="http://www.w3.org/2000/svg" width="232.644" height="242.467" viewBox="0 0 232.644 242.467">
  <g id="_9752342-ai" data-name="9752342-ai" transform="translate(-35.496 -21.811)" style="mix-blend-mode: luminosity;isolation: isolate">
    <g id="Envelopes" transform="translate(35.6 22.3)">
      <g id="_Group_" data-name="&lt;Group&gt;" transform="translate(0)">
        <g id="_Grid_Repeat_00000001640726536942399370000008061166973999876772_" data-name="&lt;Grid Repeat&gt; 00000001640726536942399370000008061166973999876772 " transform="translate(49.624 4.74)">
          <g id="_Group_2" data-name="&lt;Group&gt;">
            <g id="_Group_3" data-name="&lt;Group&gt;" transform="translate(30.046)">
              <path id="_Path_" data-name="&lt;Path&gt;" d="M406.27,68.534,364.028,77.5,358.3,50.462,400.542,41.5Z" transform="translate(-358.3 -41.5)" fill="#92e3a9"/>
              <path id="_Path_2" data-name="&lt;Path&gt;" d="M358.3,50.462l24,9.036,18.245-18" transform="translate(-358.3 -41.5)" fill="none" stroke="#263238" stroke-width="1"/>
            </g>
            <path id="_Path_3" data-name="&lt;Path&gt;" d="M305.7,112.3,282,117.312" transform="translate(-270.791 -94.821)" fill="none" stroke="#263238" stroke-width="1"/>
            <path id="_Path_4" data-name="&lt;Path&gt;" d="M337.209,193.3,332,194.411" transform="translate(-308.447 -155.823)" fill="none" stroke="#263238" stroke-width="1"/>
            <path id="_Path_5" data-name="&lt;Path&gt;" d="M365.082,187.3l-5.382,1.136" transform="translate(-329.309 -151.304)" fill="none" stroke="#263238" stroke-width="1"/>
            <path id="_Path_6" data-name="&lt;Path&gt;" d="M243.908,175.4l-7.308,1.555" transform="translate(-236.6 -142.342)" fill="none" stroke="#263238" stroke-width="1"/>
            <path id="_Path_7" data-name="&lt;Path&gt;" d="M308.363,145.4,275.7,152.313" transform="translate(-266.047 -119.749)" fill="none" stroke="#263238" stroke-width="1"/>
          </g>
        </g>
        <g id="_Grid_Repeat_00000114761614917885442910000000752638331631276963_" data-name="&lt;Grid Repeat&gt; 00000114761614917885442910000000752638331631276963 " transform="translate(172.35)">
          <g id="_Group_4" data-name="&lt;Group&gt;">
            <path id="_Path_8" data-name="&lt;Path&gt;" d="M785,22.3q-2.913.617-5.8,1.234" transform="translate(-767.967 -22.3)" fill="none" stroke="#263238" stroke-width="1"/>
            <path id="_Path_9" data-name="&lt;Path&gt;" d="M841.346,81.9,829.1,84.492" transform="translate(-805.547 -67.186)" fill="none" stroke="#263238" stroke-width="1"/>
            <path id="_Path_10" data-name="&lt;Path&gt;" d="M757.747,55.7,733.7,60.811" transform="translate(-733.7 -47.454)" fill="none" stroke="#263238" stroke-width="1"/>
            <path id="_Path_11" data-name="&lt;Path&gt;" d="M855.319,40.1,839,43.556" transform="translate(-813.003 -35.705)" fill="none" stroke="#263238" stroke-width="1"/>
          </g>
        </g>
        <g id="_Grid_Repeat_00000166671450405655008450000015530136579440188841_" data-name="&lt;Grid Repeat&gt; 00000166671450405655008450000015530136579440188841 " transform="translate(0 73.226)">
          <g id="_Group_5" data-name="&lt;Group&gt;" transform="translate(0 0)">
            <g id="_Group_6" data-name="&lt;Group&gt;" transform="translate(30.071)">
              <path id="_Path_12" data-name="&lt;Path&gt;" d="M205.345,345.934l-42.217,8.937L157.4,327.837l42.217-8.937Z" transform="translate(-157.4 -318.9)" fill="#92e3a9"/>
              <path id="_Path_13" data-name="&lt;Path&gt;" d="M157.4,327.837l23.973,9.061,18.245-18" transform="translate(-157.4 -318.9)" fill="none" stroke="#263238" stroke-width="1"/>
            </g>
            <path id="_Path_14" data-name="&lt;Path&gt;" d="M104.776,389.7,81.1,394.712" transform="translate(-69.867 -372.221)" fill="none" stroke="#263238" stroke-width="1"/>
            <path id="_Path_15" data-name="&lt;Path&gt;" d="M143.245,464.6,131,467.192" transform="translate(-107.447 -428.629)" fill="none" stroke="#263238" stroke-width="1"/>
            <path id="_Path_16" data-name="&lt;Path&gt;" d="M44.192,451.7,35.6,453.527" transform="translate(-35.6 -418.914)" fill="none" stroke="#263238" stroke-width="1"/>
            <path id="_Path_17" data-name="&lt;Path&gt;" d="M111.5,422.8l-31.3,6.641" transform="translate(-69.189 -397.149)" fill="none" stroke="#263238" stroke-width="1"/>
          </g>
        </g>
        <g id="_Grid_Repeat_00000066515958837348348780000016970334271928655523_" data-name="&lt;Grid Repeat&gt; 00000066515958837348348780000016970334271928655523 " transform="translate(122.751 47.229)">
          <g id="_Group_7" data-name="&lt;Group&gt;">
            <g id="_Group_8" data-name="&lt;Group&gt;" transform="translate(30.046)">
              <path id="_Path_18" data-name="&lt;Path&gt;" d="M702.47,240.634l-42.242,8.937L654.5,222.537l42.242-8.937Z" transform="translate(-654.5 -213.6)" fill="#92e3a9"/>
              <path id="_Path_19" data-name="&lt;Path&gt;" d="M654.5,222.537l23.973,9.036L696.742,213.6" transform="translate(-654.5 -213.6)" fill="none" stroke="#263238" stroke-width="1"/>
            </g>
            <path id="_Path_20" data-name="&lt;Path&gt;" d="M601.876,284.4,578.2,289.412" transform="translate(-566.991 -266.921)" fill="none" stroke="#263238" stroke-width="1"/>
            <path id="_Path_21" data-name="&lt;Path&gt;" d="M640.421,359.3,628.2,361.892" transform="translate(-604.647 -323.329)" fill="none" stroke="#263238" stroke-width="1"/>
            <path id="_Path_22" data-name="&lt;Path&gt;" d="M575.116,317.5,532.8,326.462" transform="translate(-532.8 -291.849)" fill="none" stroke="#263238" stroke-width="1"/>
          </g>
        </g>
        <g id="_Grid_Repeat_00000104680976973595601670000003472713315468574897_" data-name="&lt;Grid Repeat&gt; 00000104680976973595601670000003472713315468574897 " transform="translate(73.127 115.715)">
          <g id="_Group_9" data-name="&lt;Group&gt;">
            <g id="_Group_10" data-name="&lt;Group&gt;" transform="translate(30.071)">
              <path id="_Path_23" data-name="&lt;Path&gt;" d="M501.545,518.034l-42.217,8.937L453.6,499.937,495.817,491Z" transform="translate(-453.6 -491)" fill="#92e3a9"/>
              <path id="_Path_24" data-name="&lt;Path&gt;" d="M453.6,499.937l23.973,9.036L495.817,491" transform="translate(-453.6 -491)" fill="none" stroke="#263238" stroke-width="1"/>
            </g>
            <path id="_Path_25" data-name="&lt;Path&gt;" d="M400.976,561.8,377.3,566.812" transform="translate(-366.067 -544.321)" fill="none" stroke="#263238" stroke-width="1"/>
            <path id="_Path_26" data-name="&lt;Path&gt;" d="M439.446,636.7,427.2,639.292" transform="translate(-403.647 -600.729)" fill="none" stroke="#263238" stroke-width="1"/>
            <path id="_Path_27" data-name="&lt;Path&gt;" d="M374.116,594.8,331.8,603.787" transform="translate(-331.8 -569.173)" fill="none" stroke="#263238" stroke-width="1"/>
          </g>
        </g>
        <g id="_Grid_Repeat_00000024696629716844747920000008337740033108507560_" data-name="&lt;Grid Repeat&gt; 00000024696629716844747920000008337740033108507560 " transform="translate(195.878 107.173)">
          <g id="_Group_11" data-name="&lt;Group&gt;">
            <path id="_Path_28" data-name="&lt;Path&gt;" d="M898.076,456.4,874.4,461.436" transform="translate(-863.191 -456.4)" fill="none" stroke="#263238" stroke-width="1"/>
            <path id="_Path_29" data-name="&lt;Path&gt;" d="M936.621,531.4,924.4,533.992" transform="translate(-900.847 -512.884)" fill="none" stroke="#263238" stroke-width="1"/>
            <path id="_Path_30" data-name="&lt;Path&gt;" d="M856.083,502.6c-9.036,2.049-18.121,4.3-27.083,5.728" transform="translate(-829 -491.194)" fill="none" stroke="#263238" stroke-width="1"/>
            <path id="_Path_31" data-name="&lt;Path&gt;" d="M956.766,494.4q-3.333.667-6.666,1.407" transform="translate(-920.202 -485.018)" fill="none" stroke="#263238" stroke-width="1"/>
          </g>
        </g>
        <g id="_Grid_Repeat_00000039819198706413530300000002129467407876680609_" data-name="&lt;Grid Repeat&gt; 00000039819198706413530300000002129467407876680609 " transform="translate(3.308 169.017)">
          <g id="_Group_12" data-name="&lt;Group&gt;">
            <g id="_Group_13" data-name="&lt;Group&gt;" transform="translate(30.071)">
              <path id="_Path_32" data-name="&lt;Path&gt;" d="M218.745,733.934,176.528,742.9,170.8,715.862l42.217-8.962Z" transform="translate(-170.8 -706.9)" fill="#92e3a9"/>
              <path id="_Path_33" data-name="&lt;Path&gt;" d="M170.8,715.862l23.973,9.036,18.245-18" transform="translate(-170.8 -706.9)" fill="none" stroke="#263238" stroke-width="1"/>
            </g>
            <path id="_Path_34" data-name="&lt;Path&gt;" d="M118.176,777.7,94.5,782.736" transform="translate(-83.267 -760.221)" fill="none" stroke="#263238" stroke-width="1"/>
            <path id="_Path_35" data-name="&lt;Path&gt;" d="M156.645,852.7,144.4,855.292" transform="translate(-120.847 -816.704)" fill="none" stroke="#263238" stroke-width="1"/>
            <path id="_Path_36" data-name="&lt;Path&gt;" d="M91.316,810.8,49,819.762" transform="translate(-49 -785.149)" fill="none" stroke="#263238" stroke-width="1"/>
          </g>
        </g>
        <g id="_Grid_Repeat_00000153684982078670613560000018164561568087717536_" data-name="&lt;Grid Repeat&gt; 00000153684982078670613560000018164561568087717536 " transform="translate(146.255 158.179)">
          <g id="_Group_14" data-name="&lt;Group&gt;">
            <g id="_Group_15" data-name="&lt;Group&gt;" transform="translate(30.071)">
              <path id="_Path_37" data-name="&lt;Path&gt;" d="M797.745,690.034,755.528,699,749.8,671.962,792.017,663Z" transform="translate(-749.8 -663)" fill="#92e3a9"/>
              <path id="_Path_38" data-name="&lt;Path&gt;" d="M749.8,671.962,773.773,681l18.245-18" transform="translate(-749.8 -663)" fill="none" stroke="#263238" stroke-width="1"/>
            </g>
            <path id="_Path_39" data-name="&lt;Path&gt;" d="M697.176,733.8,673.5,738.812" transform="translate(-662.267 -716.321)" fill="none" stroke="#263238" stroke-width="1"/>
            <path id="_Path_40" data-name="&lt;Path&gt;" d="M735.646,808.8,723.4,811.392" transform="translate(-699.847 -772.804)" fill="none" stroke="#263238" stroke-width="1"/>
            <path id="_Path_41" data-name="&lt;Path&gt;" d="M670.316,766.9,628,775.862" transform="translate(-628 -741.249)" fill="none" stroke="#263238" stroke-width="1"/>
          </g>
        </g>
      </g>
    </g>
    <g id="Device" transform="translate(129.935 72.714)">
      <g id="_Group_16" data-name="&lt;Group&gt;">
        <path id="_Path_42" data-name="&lt;Path&gt;" d="M468.435,337.623H421.8a4.088,4.088,0,0,1-4.1-4.1v-102.9a4.109,4.109,0,0,1,4.1-4.123h46.636a4.13,4.13,0,0,1,4.123,4.123v102.9A4.109,4.109,0,0,1,468.435,337.623Z" transform="translate(-417.7 -226.5)" fill="#263238" stroke="#263238" stroke-width="1"/>
        <path id="_Path_43" data-name="&lt;Path&gt;" d="M474.63,238.7H464.163v.889a1.6,1.6,0,0,1-1.6,1.6H445.473a1.6,1.6,0,0,1-1.6-1.6V238.7H433.4a3.888,3.888,0,0,0-3.9,3.876V338h49.007V242.576A3.867,3.867,0,0,0,474.63,238.7Z" transform="translate(-426.587 -235.688)" fill="#92e3a9"/>
        <path id="_Path_44" data-name="&lt;Path&gt;" d="M478.507,249.291v-6.715a3.867,3.867,0,0,0-3.876-3.876H464.163v.889a1.6,1.6,0,0,1-1.6,1.6H445.473a1.6,1.6,0,0,1-1.6-1.6V238.7H433.4a3.888,3.888,0,0,0-3.9,3.876v6.715Z" transform="translate(-426.587 -235.688)" fill="#fff"/>
      </g>
    </g>
    <g id="Button" transform="translate(137.168 133.373)">
      <path id="_Path_45" data-name="&lt;Path&gt;" d="M484.3,486.495H450.753A3.756,3.756,0,0,1,447,482.717v-6.74a3.756,3.756,0,0,1,3.753-3.777H484.3a3.762,3.762,0,0,1,3.777,3.777v6.74A3.762,3.762,0,0,1,484.3,486.495Z" transform="translate(-447 -472.2)" fill="#263238" stroke="#263238" stroke-width="1"/>
    </g>
    <g id="Envelope" transform="translate(138.946 96.884)">
      <g id="_Group_17" data-name="&lt;Group&gt;" transform="translate(0 0)">
        <path id="_Path_46" data-name="&lt;Path&gt;" d="M492.786,352.053H456V328.5h36.786Z" transform="translate(-455.556 -327.488)" fill="#263238" stroke="#263238" stroke-width="1"/>
        <path id="_Path_47" data-name="&lt;Path&gt;" d="M490.986,347.928H454.2V324.4h36.786Z" transform="translate(-454.2 -324.4)" fill="#fff" stroke="#263238" stroke-width="1"/>
        <path id="_Path_48" data-name="&lt;Path&gt;" d="M454.2,324.4l18.393,11.776L490.986,324.4" transform="translate(-454.2 -324.4)" fill="none" stroke="#263238" stroke-width="1"/>
      </g>
    </g>
    <g id="Character_hand_1" data-name="Character hand 1" transform="translate(138.296 145.441)">
      <g id="_Group_18" data-name="&lt;Group&gt;">
        <path id="_Path_49" data-name="&lt;Path&gt;" d="M456.982,579.621c.049.543,4.469,24.442,5.654,29.157a10.322,10.322,0,0,0,1.58,3.481l7.9,11.134.148,1.012v15.011H509.47v-15.6l2.79-5.9a56.6,56.6,0,0,0,5.456-22.985l.4-8.74L516.7,571.054a3.952,3.952,0,0,0-2.222-3.679l-2.617-1.333a3.95,3.95,0,0,0-4.123.346l-1.136.79.025-.568a4.142,4.142,0,0,0-3.086-4.271l-2.271-.617a4.134,4.134,0,0,0-3.58.716l-1.926,1.432-.123-.494a3.8,3.8,0,0,0-3.481-2.74l-3.284-.148a3.776,3.776,0,0,0-3.851,2.79l-1.852,6.987,1.037-20.738q.049-.889.173-1.778l3.037-21.183a5.407,5.407,0,0,0-10.789-.593l-4.049,21.479a15.492,15.492,0,0,0-.247,1.753l-1.555,32-2.469-3.012A28.019,28.019,0,0,1,465.8,573.2a8.258,8.258,0,0,0-.42-1.037c-1.6-3.382-6.123-11.357-10.838-9.579-2.2.839-4,3.876-2.3,5.505,4.246,4.1,4.691,11.135,4.74,11.53Z" transform="translate(-451.567 -521.079)" fill="#fff" stroke="#263238" stroke-width="1"/>
        <path id="_Path_50" data-name="&lt;Path&gt;" d="M523.6,764.6l-1.9,8.468" transform="translate(-504.385 -704.478)" fill="none" stroke="#263238" stroke-width="1"/>
        <path id="_Path_51" data-name="&lt;Path&gt;" d="M629.47,694.4l-.37,9.53" transform="translate(-585.27 -651.61)" fill="none" stroke="#263238" stroke-width="1"/>
        <path id="_Path_52" data-name="&lt;Path&gt;" d="M672.617,707.8,672,718.1" transform="translate(-617.578 -661.702)" fill="none" stroke="#263238" stroke-width="1"/>
        <path id="_Path_53" data-name="&lt;Path&gt;" d="M620.3,736.3s2.173,4.074,1.358,7.876" transform="translate(-578.642 -683.165)" fill="none" stroke="#263238" stroke-width="1"/>
        <path id="_Path_54" data-name="&lt;Path&gt;" d="M670.072,757.2s1.086,1.9-.272,6.518" transform="translate(-615.922 -698.905)" fill="none" stroke="#263238" stroke-width="1"/>
      </g>
    </g>
  </g>
</svg>
