<svg xmlns="http://www.w3.org/2000/svg" width="192.998" height="219.345" viewBox="0 0 192.998 219.345">
  <g id="Group_7699" data-name="Group 7699" transform="translate(-634.765 -3907.995)">
    <g id="Group_7698" data-name="Group 7698" transform="translate(-43.143 -555.34)">
      <g id="Group_7696" data-name="Group 7696" transform="translate(678.012 4478.137)">
        <g id="Group_7695" data-name="Group 7695" transform="translate(144.363)">
          <g id="_Group_" data-name="&lt;Group&gt;">
            <path id="_Path_" data-name="&lt;Path&gt;" d="M784.774,22.3q-2.8.593-5.574,1.186" transform="translate(-768.407 -22.3)" fill="none" stroke="#f1f1f1" stroke-width="1"/>
            <path id="_Path_2" data-name="&lt;Path&gt;" d="M840.865,81.9,829.1,84.391" transform="translate(-806.471 -67.763)" fill="none" stroke="#f1f1f1" stroke-width="1"/>
            <path id="_Path_3" data-name="&lt;Path&gt;" d="M756.8,55.7l-23.1,4.91" transform="translate(-733.7 -47.777)" fill="none" stroke="#f1f1f1" stroke-width="1"/>
            <path id="_Path_4" data-name="&lt;Path&gt;" d="M854.679,40.1,839,43.421" transform="translate(-814.022 -35.878)" fill="none" stroke="#f1f1f1" stroke-width="1"/>
          </g>
        </g>
        <g id="Group_7694" data-name="Group 7694" transform="translate(0 4.554)">
          <g id="_Group_2" data-name="&lt;Group&gt;" transform="translate(0 65.8)">
            <g id="_Group_3" data-name="&lt;Group&gt;" transform="translate(28.891)">
              <path id="_Path_5" data-name="&lt;Path&gt;" d="M499.665,516.974,459.1,525.561l-5.5-25.974L494.162,491Z" transform="translate(-453.6 -491)" fill="#a4a4a4"/>
              <path id="_Path_6" data-name="&lt;Path&gt;" d="M453.6,499.587l23.033,8.682L494.162,491" transform="translate(-453.6 -491)" fill="none" stroke="#fff" stroke-width="1"/>
            </g>
            <path id="_Path_7" data-name="&lt;Path&gt;" d="M400.048,561.8,377.3,566.615" transform="translate(-366.507 -545.006)" fill="none" stroke="#fff" stroke-width="1"/>
            <path id="_Path_8" data-name="&lt;Path&gt;" d="M438.965,636.7,427.2,639.191" transform="translate(-404.571 -602.139)" fill="none" stroke="#fff" stroke-width="1"/>
            <path id="_Path_9" data-name="&lt;Path&gt;" d="M372.457,594.8,331.8,603.434" transform="translate(-331.8 -570.178)" fill="none" stroke="#fff" stroke-width="1"/>
          </g>
          <g id="_Group_4" data-name="&lt;Group&gt;" transform="translate(117.938 40.823)">
            <g id="_Group_5" data-name="&lt;Group&gt;" transform="translate(28.891)">
              <path id="_Path_10" data-name="&lt;Path&gt;" d="M499.665,516.974,459.1,525.561l-5.5-25.974L494.162,491Z" transform="translate(-453.6 -491)" fill="#a4a4a4"/>
              <path id="_Path_11" data-name="&lt;Path&gt;" d="M453.6,499.587l23.033,8.682L494.162,491" transform="translate(-453.6 -491)" fill="none" stroke="#fff" stroke-width="1"/>
            </g>
            <path id="_Path_12" data-name="&lt;Path&gt;" d="M400.048,561.8,377.3,566.615" transform="translate(-366.507 -545.006)" fill="none" stroke="#fff" stroke-width="1"/>
            <path id="_Path_13" data-name="&lt;Path&gt;" d="M438.965,636.7,427.2,639.191" transform="translate(-404.571 -602.139)" fill="none" stroke="#fff" stroke-width="1"/>
            <path id="_Path_14" data-name="&lt;Path&gt;" d="M372.457,594.8,331.8,603.434" transform="translate(-331.8 -570.178)" fill="none" stroke="#fff" stroke-width="1"/>
          </g>
          <g id="_Group_6" data-name="&lt;Group&gt;" transform="translate(45.678 -19)">
            <g id="_Group_7" data-name="&lt;Group&gt;" transform="translate(28.891)">
              <path id="_Path_15" data-name="&lt;Path&gt;" d="M499.665,516.974,459.1,525.561l-5.5-25.974L494.162,491Z" transform="translate(-453.6 -491)" fill="#a4a4a4"/>
              <path id="_Path_16" data-name="&lt;Path&gt;" d="M453.6,499.587l23.033,8.682L494.162,491" transform="translate(-453.6 -491)" fill="none" stroke="#fff" stroke-width="1"/>
            </g>
            <path id="_Path_17" data-name="&lt;Path&gt;" d="M400.048,561.8,377.3,566.615" transform="translate(-366.507 -545.006)" fill="none" stroke="#fff" stroke-width="1"/>
            <path id="_Path_18" data-name="&lt;Path&gt;" d="M438.965,636.7,427.2,639.191" transform="translate(-404.571 -602.139)" fill="none" stroke="#fff" stroke-width="1"/>
            <path id="_Path_19" data-name="&lt;Path&gt;" d="M372.457,594.8,331.8,603.434" transform="translate(-331.8 -570.178)" fill="none" stroke="#fff" stroke-width="1"/>
          </g>
        </g>
      </g>
    </g>
    <g id="_9752342-ai" data-name="9752342-ai" transform="translate(581.929 3878.066)">
      <g id="Device" transform="translate(129.935 72.714)">
        <g id="_Group_8" data-name="&lt;Group&gt;">
          <path id="_Path_20" data-name="&lt;Path&gt;" d="M468.435,337.623H421.8a4.088,4.088,0,0,1-4.1-4.1v-102.9a4.109,4.109,0,0,1,4.1-4.123h46.636a4.13,4.13,0,0,1,4.123,4.123v102.9A4.109,4.109,0,0,1,468.435,337.623Z" transform="translate(-417.7 -226.5)" fill="#444" stroke="#263238" stroke-width="1"/>
          <path id="_Path_21" data-name="&lt;Path&gt;" d="M474.63,238.7H464.163v.889a1.6,1.6,0,0,1-1.6,1.6H445.473a1.6,1.6,0,0,1-1.6-1.6V238.7H433.4a3.888,3.888,0,0,0-3.9,3.876V338h49.007V242.576A3.867,3.867,0,0,0,474.63,238.7Z" transform="translate(-426.587 -235.688)" fill="#ccc"/>
          <path id="_Path_22" data-name="&lt;Path&gt;" d="M478.507,249.291v-6.715a3.867,3.867,0,0,0-3.876-3.876H464.163v.889a1.6,1.6,0,0,1-1.6,1.6H445.473a1.6,1.6,0,0,1-1.6-1.6V238.7H433.4a3.888,3.888,0,0,0-3.9,3.876v6.715Z" transform="translate(-426.587 -235.688)" fill="#fff"/>
        </g>
      </g>
      <g id="Button" transform="translate(137.168 133.373)">
        <path id="_Path_23" data-name="&lt;Path&gt;" d="M484.3,486.495H450.753A3.756,3.756,0,0,1,447,482.717v-6.74a3.756,3.756,0,0,1,3.753-3.777H484.3a3.762,3.762,0,0,1,3.777,3.777v6.74A3.762,3.762,0,0,1,484.3,486.495Z" transform="translate(-447 -472.2)"/>
      </g>
      <g id="Envelope" transform="translate(138.946 96.884)">
        <g id="_Group_9" data-name="&lt;Group&gt;" transform="translate(0 0)">
          <path id="_Path_24" data-name="&lt;Path&gt;" d="M492.786,352.053H456V328.5h36.786Z" transform="translate(-455.556 -327.488)" fill="#263238" stroke="#263238" stroke-width="1"/>
          <path id="_Path_25" data-name="&lt;Path&gt;" d="M490.986,347.928H454.2V324.4h36.786Z" transform="translate(-454.2 -324.4)" fill="#fff" stroke="#263238" stroke-width="1"/>
          <path id="_Path_26" data-name="&lt;Path&gt;" d="M454.2,324.4l18.393,11.776L490.986,324.4" transform="translate(-454.2 -324.4)" fill="none" stroke="#263238" stroke-width="1"/>
        </g>
      </g>
      <g id="Character_hand_1" data-name="Character hand 1" transform="translate(138.296 145.441)">
        <g id="_Group_10" data-name="&lt;Group&gt;">
          <path id="_Path_27" data-name="&lt;Path&gt;" d="M456.982,579.621c.049.543,4.469,24.442,5.654,29.157a10.322,10.322,0,0,0,1.58,3.481l7.9,11.134.148,1.012,37.206-.593,2.79-5.9a56.6,56.6,0,0,0,5.456-22.985l.4-8.74L516.7,571.054a3.952,3.952,0,0,0-2.222-3.679l-2.617-1.333a3.95,3.95,0,0,0-4.123.346l-1.136.79.025-.568a4.142,4.142,0,0,0-3.086-4.271l-2.271-.617a4.134,4.134,0,0,0-3.58.716l-1.926,1.432-.123-.494a3.8,3.8,0,0,0-3.481-2.74l-3.284-.148a3.776,3.776,0,0,0-3.851,2.79l-1.852,6.987,1.037-20.738q.049-.889.173-1.778l3.037-21.183a5.407,5.407,0,0,0-10.789-.593l-4.049,21.479a15.492,15.492,0,0,0-.247,1.753l-1.555,32-2.469-3.012A28.019,28.019,0,0,1,465.8,573.2a8.258,8.258,0,0,0-.42-1.037c-1.6-3.382-6.123-11.357-10.838-9.579-2.2.839-4,3.876-2.3,5.505,4.246,4.1,4.691,11.135,4.74,11.53Z" transform="translate(-451.567 -521.079)" fill="#fff" stroke="#263238" stroke-width="1"/>
          <path id="_Path_28" data-name="&lt;Path&gt;" d="M523.6,764.6l-1.9,8.468" transform="translate(-504.385 -704.478)" fill="none" stroke="#263238" stroke-width="1"/>
          <path id="_Path_29" data-name="&lt;Path&gt;" d="M629.47,694.4l-.37,9.53" transform="translate(-585.27 -651.61)" fill="none" stroke="#263238" stroke-width="1"/>
          <path id="_Path_30" data-name="&lt;Path&gt;" d="M672.617,707.8,672,718.1" transform="translate(-617.578 -661.702)" fill="none" stroke="#263238" stroke-width="1"/>
          <path id="_Path_31" data-name="&lt;Path&gt;" d="M620.3,736.3s2.173,4.074,1.358,7.876" transform="translate(-578.642 -683.165)" fill="none" stroke="#263238" stroke-width="1"/>
          <path id="_Path_32" data-name="&lt;Path&gt;" d="M670.072,757.2s1.086,1.9-.272,6.518" transform="translate(-615.922 -698.905)" fill="none" stroke="#263238" stroke-width="1"/>
        </g>
      </g>
    </g>
  </g>
</svg>
