<svg xmlns="http://www.w3.org/2000/svg" width="40" height="40" viewBox="0 0 40 40">
  <g id="Group_7689" data-name="Group 7689" transform="translate(-202 -6319)">
    <rect id="Rectangle_136" data-name="Rectangle 136" width="40" height="40" rx="5" transform="translate(202 6319)" fill="#007ebb"/>
    <g id="Icons" transform="translate(215 6333)">
      <g id="Color-">
        <path id="LinkedIn" d="M716,277.727h-3.094v-4.474c0-1.171-.484-1.97-1.548-1.97a1.561,1.561,0,0,0-1.477,1.06,1.964,1.964,0,0,0-.067.707v4.679h-3.065s.039-7.926,0-8.646h3.065v1.357a2.8,2.8,0,0,1,2.724-1.44c1.939,0,3.463,1.243,3.463,3.922v4.807ZM703.648,268h-.02A1.508,1.508,0,0,1,702,266.5a1.664,1.664,0,1,1,1.648,1.5Zm-1.295,1.082h2.729v8.646h-2.729v-8.646Z" transform="translate(-702 -265)" fill="#fff" fill-rule="evenodd"/>
      </g>
    </g>
  </g>
</svg>
