<svg xmlns="http://www.w3.org/2000/svg" width="70.885" height="96" viewBox="0 0 70.885 96">
  <g id="Group_7633" data-name="Group 7633" transform="translate(-924.383 -2061.981)">
    <path id="digital--trust_1_" d="M40.082,96.59A35.482,35.482,0,0,1,4.64,61.148V19.921L40.082.59,75.525,19.921V61.148A35.482,35.482,0,0,1,40.082,96.59ZM6.886,21.256V61.148a33.2,33.2,0,1,0,66.392,0V21.256L40.082,3.148Zm45.676,16.52-7.035-7.035,1.591-1.588L52.562,34.6,64.246,22.916,65.837,24.5ZM16.246,46.331a11.314,11.314,0,0,1,8.733-11.048,1.123,1.123,0,0,0,.2-2.118,5.992,5.992,0,1,1,4.858,0,1.123,1.123,0,0,0,.2,2.118,11.331,11.331,0,0,1,6.755,4.655l1.856-1.267a13.617,13.617,0,0,0-5.791-4.8,8.237,8.237,0,1,0-10.9,0A13.54,13.54,0,0,0,14,46.331V64.268h2.246V46.331ZM58.8,52.911H33.842a1.122,1.122,0,0,1-1.123-1.123v-6.24a1.122,1.122,0,0,1,1.123-1.123H58.8a1.122,1.122,0,0,1,1.123,1.123v6.24A1.122,1.122,0,0,1,58.8,52.911ZM34.966,50.665H57.679V46.671H34.966S34.966,50.665,34.966,50.665ZM58.8,65.391H33.842a1.122,1.122,0,0,1-1.123-1.123v-6.24A1.122,1.122,0,0,1,33.842,56.9H58.8a1.122,1.122,0,0,1,1.123,1.123v6.24A1.122,1.122,0,0,1,58.8,65.391ZM34.966,63.144H57.679V59.151H34.966S34.966,63.144,34.966,63.144ZM58.8,77.87H33.842a1.122,1.122,0,0,1-1.123-1.123v-6.24a1.122,1.122,0,0,1,1.123-1.123H58.8a1.122,1.122,0,0,1,1.123,1.123v6.24A1.122,1.122,0,0,1,58.8,77.87ZM34.966,75.624H57.679V71.631H34.966S34.966,75.624,34.966,75.624Z" transform="translate(919.743 2061.391)" fill="#fff" stroke="#000" stroke-width="1"/>
  </g>
</svg>
