<svg id="iot-munich-svgrepo-com" xmlns="http://www.w3.org/2000/svg" width="64" height="64" viewBox="0 0 64 64">
  <path id="iot--munich_1_" d="M63,63.36H1V61.89h9.589V1.374a.73.73,0,0,1,.393-.647.755.755,0,0,1,.765.037l12.4,8.169a.73.73,0,0,1,.331.61V27.181H39.523V17.708a.73.73,0,0,1,.393-.647.741.741,0,0,1,.763.037l12.4,8.167a.724.724,0,0,1,.333.61V61.89H63ZM41.011,61.89h10.91V53.152H48.533v-1.47h3.389V32.735H44.4v-1.47h7.523v-5l-10.91-7.187V35.348H44.4V36.82H41.011Zm-16.533,0H39.523v-6.7H24.477Zm-12.4,0H22.989V53.152H19.6v-1.47h3.389V16.4H19.6v-1.47h3.389V9.937L12.077,2.748V19.015H19.6v1.47H12.077V35.348h3.389V36.82H12.077V55.765H19.6v1.472H12.077Zm12.4-8.167H39.523V49.068H24.477Zm0-6.125H39.523V28.651H24.477Zm24.056,9.637H44.4v-1.47h4.133ZM19.6,24.568H15.467V23.1H19.6Z" transform="translate(0)" fill="#fff"/>
  <rect id="_Transparent_Rectangle" width="64" height="64" fill="none"/>
</svg>
