<svg id="feedback-02-svgrepo-com" xmlns="http://www.w3.org/2000/svg" width="64" height="64" viewBox="0 0 64 64">
  <path id="feedback--02_1_" d="M32,38.944A7.213,7.213,0,0,1,24.562,32,7.213,7.213,0,0,1,32,25.056,7.212,7.212,0,0,1,39.44,32,7.212,7.212,0,0,1,32,38.944Zm0-12.4A5.668,5.668,0,0,0,26.156,32,5.668,5.668,0,0,0,32,37.456,5.666,5.666,0,0,0,37.846,32,5.666,5.666,0,0,0,32,26.544Zm.8-8.74V1H31.2V17.8l-5.283-4.929-1.127,1.052L32,20.652l7.207-6.727-1.129-1.052Zm-15.522-.281,1.933,6.733-15.591-8.4-.8,1.29,15.591,8.4L11.2,27.35l.414,1.436,9.843-2.461-2.637-9.188ZM11.2,36.65l7.213,1.8L2.82,46.855l.8,1.288,15.591-8.4-1.933,6.735,1.539.384,2.637-9.186-9.843-2.459ZM24.8,50.073l1.127,1.054L31.206,46.2V63H32.8V46.2l5.28,4.931,1.129-1.054L32,43.348ZM52.8,36.65l-.412-1.436L42.55,37.673l2.635,9.186,1.539-.384L44.791,39.74l15.591,8.4.795-1.288-15.589-8.4Zm0-9.3-7.213-1.8,15.589-8.4-.795-1.29-15.591,8.4,1.933-6.735-1.539-.386-2.635,9.188,9.841,2.461Z" transform="translate(0 0)" fill="#fff"/>
  <rect id="_Transparent_Rectangle" width="64" height="64" fill="none"/>
</svg>
