<svg xmlns="http://www.w3.org/2000/svg" width="14.104" height="14.109" viewBox="0 0 14.104 14.109">
  <path id="call-_192_" data-name="call-[#192]" d="M60.851,7173.224a3.344,3.344,0,0,1-3.36,1.871,10.666,10.666,0,0,1-4.85-2.012,15.993,15.993,0,0,1-5.016-5.98,5.028,5.028,0,0,1,.2-5.21,2.011,2.011,0,0,1,1.589-.894c.967-.046,1.1.508,1.434,1.373.247.64.577,1.3.762,1.966.345,1.251-.861,1.3-1.014,2.312-.095.649.684,1.506,1.035,1.967a9.433,9.433,0,0,0,2.452,2.256c.535.339,1.4.95,2.012.611.944-.517.855-2.105,2.175-1.569.684.281,1.346.687,2,1.034,1.009.545.962,1.1.577,2.275-.288.864.288-.875,0,0" transform="translate(-47 -7160.997)" fill="#f5f5f5" fill-rule="evenodd"/>
</svg>
