<svg xmlns="http://www.w3.org/2000/svg" width="82.775" height="96" viewBox="0 0 82.775 96">
  <path id="systems-devops--release_1_" d="M71.344,79.857H68.933V52.6L57.385,63.976,55.69,62.255,70.138,48.028,84.583,62.255l-1.694,1.721L71.344,52.6Zm-25.712,15.7L6.051,72.467V26.283H3.64V73.16a1.206,1.206,0,0,0,.6,1.041L44.42,97.64ZM86.411,89.9V73.16H84V88.7H56.276V73.16H53.865V89.9a1.2,1.2,0,0,0,1.205,1.205H85.206A1.2,1.2,0,0,0,86.411,89.9ZM19.444,16.238H17.033V49.722h2.411ZM86.411,26.283a1.2,1.2,0,0,0-.6-1.041L45.632,1.8a1.207,1.207,0,0,0-1.212,0L31.026,9.588a1.2,1.2,0,0,0-.6,1.041V39.677h2.411V11.323L45.026,4.241,84,26.976V43.025h2.414l0-16.742Z" transform="translate(-3.64 -1.64)"/>
</svg>
