<svg xmlns="http://www.w3.org/2000/svg" width="200.025" height="130.468" viewBox="0 0 200.025 130.468">
  <g id="Group_7685" data-name="Group 7685" transform="translate(-637.007 -4252.606)">
    <g id="_6166387-ai" data-name="6166387-ai" transform="translate(545.508 4207.036)">
      <g id="Background_Complete" data-name="Background Complete" transform="translate(88.7 33)">
        <g id="_Group_" data-name="&lt;Group&gt;" transform="translate(103.374 108.268)">
          <g id="_Group_2" data-name="&lt;Group&gt;" transform="translate(0 0)">
            <g id="_Group_3" data-name="&lt;Group&gt;" transform="translate(8.88 5.597)">
              <g id="_Group_4" data-name="&lt;Group&gt;">
                <path id="_Path_" data-name="&lt;Path&gt;" d="M807.638,776.825a.941.941,0,0,1-.938-.938V762.238a.941.941,0,0,1,.938-.938.954.954,0,0,1,.954.938v13.649A.954.954,0,0,1,807.638,776.825Z" transform="translate(-806.7 -761.3)" fill="#e0e0e0"/>
              </g>
            </g>
            <g id="_Group_5" data-name="&lt;Group&gt;" transform="translate(4.44 7.723)">
              <g id="_Group_6" data-name="&lt;Group&gt;">
                <path id="_Path_2" data-name="&lt;Path&gt;" d="M779.238,786.172a.944.944,0,0,1-.938-.954v-9.365a.946.946,0,1,1,1.892,0v9.365A.948.948,0,0,1,779.238,786.172Z" transform="translate(-778.3 -774.9)" fill="#e0e0e0"/>
              </g>
            </g>
            <g id="_Group_7" data-name="&lt;Group&gt;" transform="translate(13.305 7.723)">
              <g id="_Group_8" data-name="&lt;Group&gt;">
                <path id="_Path_3" data-name="&lt;Path&gt;" d="M835.954,786.172a.948.948,0,0,1-.954-.954v-9.365a.946.946,0,1,1,1.892,0v9.365A.944.944,0,0,1,835.954,786.172Z" transform="translate(-835 -774.9)" fill="#e0e0e0"/>
              </g>
            </g>
            <g id="_Group_9" data-name="&lt;Group&gt;" transform="translate(17.745 9.646)">
              <g id="_Group_10" data-name="&lt;Group&gt;">
                <path id="_Path_4" data-name="&lt;Path&gt;" d="M864.338,794.626a.941.941,0,0,1-.938-.938v-5.55a.946.946,0,0,1,1.892,0v5.55A.944.944,0,0,1,864.338,794.626Z" transform="translate(-863.4 -787.2)" fill="#e0e0e0"/>
              </g>
            </g>
            <g id="_Group_11" data-name="&lt;Group&gt;" transform="translate(88.693 5.597)">
              <g id="_Group_12" data-name="&lt;Group&gt;">
                <path id="_Path_5" data-name="&lt;Path&gt;" d="M1318.138,776.825a.941.941,0,0,1-.938-.938V762.238a.946.946,0,0,1,1.892,0v13.649A.944.944,0,0,1,1318.138,776.825Z" transform="translate(-1317.2 -761.3)" fill="#e0e0e0"/>
              </g>
            </g>
            <g id="_Group_13" data-name="&lt;Group&gt;" transform="translate(84.253 7.723)">
              <g id="_Group_14" data-name="&lt;Group&gt;">
                <path id="_Path_6" data-name="&lt;Path&gt;" d="M1289.754,786.172a.948.948,0,0,1-.954-.954v-9.365a.946.946,0,1,1,1.892,0v9.365A.944.944,0,0,1,1289.754,786.172Z" transform="translate(-1288.8 -774.9)" fill="#e0e0e0"/>
              </g>
            </g>
            <g id="_Group_15" data-name="&lt;Group&gt;" transform="translate(93.134 7.723)">
              <g id="_Group_16" data-name="&lt;Group&gt;">
                <path id="_Path_7" data-name="&lt;Path&gt;" d="M1346.538,786.172a.944.944,0,0,1-.938-.954v-9.365a.946.946,0,1,1,1.892,0v9.365A.948.948,0,0,1,1346.538,786.172Z" transform="translate(-1345.6 -774.9)" fill="#e0e0e0"/>
              </g>
            </g>
            <g id="_Group_17" data-name="&lt;Group&gt;" transform="translate(97.558 9.646)">
              <g id="_Group_18" data-name="&lt;Group&gt;">
                <path id="_Path_8" data-name="&lt;Path&gt;" d="M1374.854,794.626a.944.944,0,0,1-.954-.938v-5.55a.946.946,0,0,1,1.892,0v5.55A.941.941,0,0,1,1374.854,794.626Z" transform="translate(-1373.9 -787.2)" fill="#e0e0e0"/>
              </g>
            </g>
            <g id="_Group_19" data-name="&lt;Group&gt;" transform="translate(22.169 7.911)">
              <g id="_Group_20" data-name="&lt;Group&gt;">
                <path id="_Path_9" data-name="&lt;Path&gt;" d="M892.654,787a.954.954,0,0,1-.954-.938v-9.021a.954.954,0,0,1,.954-.938.941.941,0,0,1,.938.938v9.021A.941.941,0,0,1,892.654,787Z" transform="translate(-891.7 -776.1)" fill="#e0e0e0"/>
              </g>
            </g>
            <g id="_Group_21" data-name="&lt;Group&gt;" transform="translate(26.61 5.941)">
              <g id="_Group_22" data-name="&lt;Group&gt;">
                <path id="_Path_10" data-name="&lt;Path&gt;" d="M921.054,778.337a.944.944,0,0,1-.954-.938V764.438a.946.946,0,0,1,1.892,0V777.4A.941.941,0,0,1,921.054,778.337Z" transform="translate(-920.1 -763.5)" fill="#e0e0e0"/>
              </g>
            </g>
            <g id="_Group_23" data-name="&lt;Group&gt;" transform="translate(31.05 3.565)">
              <g id="_Group_24" data-name="&lt;Group&gt;">
                <path id="_Path_11" data-name="&lt;Path&gt;" d="M949.438,767.874a.941.941,0,0,1-.938-.938V749.254a.946.946,0,1,1,1.892,0v17.682A.944.944,0,0,1,949.438,767.874Z" transform="translate(-948.5 -748.3)" fill="#e0e0e0"/>
              </g>
            </g>
            <g id="_Group_25" data-name="&lt;Group&gt;" transform="translate(35.474 5.832)">
              <g id="_Group_26" data-name="&lt;Group&gt;">
                <path id="_Path_12" data-name="&lt;Path&gt;" d="M977.754,777.856a.948.948,0,0,1-.954-.954V763.754a.946.946,0,1,1,1.892,0V776.9A.944.944,0,0,1,977.754,777.856Z" transform="translate(-976.8 -762.8)" fill="#e0e0e0"/>
              </g>
            </g>
            <g id="_Group_27" data-name="&lt;Group&gt;" transform="translate(39.914 7.958)">
              <g id="_Group_28" data-name="&lt;Group&gt;">
                <path id="_Path_13" data-name="&lt;Path&gt;" d="M1006.154,787.2a.944.944,0,0,1-.954-.938v-8.927a.946.946,0,0,1,1.892,0v8.927A.941.941,0,0,1,1006.154,787.2Z" transform="translate(-1005.2 -776.4)" fill="#e0e0e0"/>
              </g>
            </g>
            <g id="_Group_29" data-name="&lt;Group&gt;" transform="translate(44.354 9.084)">
              <g id="_Group_30" data-name="&lt;Group&gt;">
                <path id="_Path_14" data-name="&lt;Path&gt;" d="M1034.538,792.152a.944.944,0,0,1-.938-.954v-6.645a.946.946,0,1,1,1.892,0V791.2A.947.947,0,0,1,1034.538,792.152Z" transform="translate(-1033.6 -783.6)" fill="#e0e0e0"/>
              </g>
            </g>
            <g id="_Group_31" data-name="&lt;Group&gt;" transform="translate(48.779 5.691)">
              <g id="_Group_32" data-name="&lt;Group&gt;">
                <path id="_Path_15" data-name="&lt;Path&gt;" d="M1062.854,777.237a.944.944,0,0,1-.954-.938V762.838a.946.946,0,0,1,1.892,0V776.3A.941.941,0,0,1,1062.854,777.237Z" transform="translate(-1061.9 -761.9)" fill="#e0e0e0"/>
              </g>
            </g>
            <g id="_Group_33" data-name="&lt;Group&gt;" transform="translate(66.524 5.691)">
              <g id="_Group_34" data-name="&lt;Group&gt;">
                <path id="_Path_16" data-name="&lt;Path&gt;" d="M1176.338,777.237a.941.941,0,0,1-.938-.938V762.838a.946.946,0,0,1,1.892,0V776.3A.944.944,0,0,1,1176.338,777.237Z" transform="translate(-1175.4 -761.9)" fill="#e0e0e0"/>
              </g>
            </g>
            <g id="_Group_35" data-name="&lt;Group&gt;" transform="translate(53.219 3.565)">
              <g id="_Group_36" data-name="&lt;Group&gt;">
                <path id="_Path_17" data-name="&lt;Path&gt;" d="M1091.238,767.874a.941.941,0,0,1-.938-.938V749.254a.946.946,0,1,1,1.892,0v17.682A.944.944,0,0,1,1091.238,767.874Z" transform="translate(-1090.3 -748.3)" fill="#e0e0e0"/>
              </g>
            </g>
            <g id="_Group_37" data-name="&lt;Group&gt;" transform="translate(57.659)">
              <g id="_Group_38" data-name="&lt;Group&gt;">
                <path id="_Path_18" data-name="&lt;Path&gt;" d="M1119.638,752.219a.941.941,0,0,1-.938-.938V726.438a.941.941,0,0,1,.938-.938.954.954,0,0,1,.954.938v24.843A.954.954,0,0,1,1119.638,752.219Z" transform="translate(-1118.7 -725.5)" fill="#e0e0e0"/>
              </g>
            </g>
            <g id="_Group_39" data-name="&lt;Group&gt;" transform="translate(62.084 3.565)">
              <g id="_Group_40" data-name="&lt;Group&gt;">
                <path id="_Path_19" data-name="&lt;Path&gt;" d="M1147.954,767.874a.944.944,0,0,1-.954-.938V749.254a.946.946,0,1,1,1.892,0v17.682A.941.941,0,0,1,1147.954,767.874Z" transform="translate(-1147 -748.3)" fill="#e0e0e0"/>
              </g>
            </g>
            <g id="_Group_41" data-name="&lt;Group&gt;" transform="translate(70.948 9.084)">
              <g id="_Group_42" data-name="&lt;Group&gt;">
                <path id="_Path_20" data-name="&lt;Path&gt;" d="M1204.654,792.152a.957.957,0,0,1-.954-.954v-6.645a.957.957,0,0,1,.954-.954.944.944,0,0,1,.938.954V791.2A.944.944,0,0,1,1204.654,792.152Z" transform="translate(-1203.7 -783.6)" fill="#e0e0e0"/>
              </g>
            </g>
            <g id="_Group_43" data-name="&lt;Group&gt;" transform="translate(79.829 9.084)">
              <g id="_Group_44" data-name="&lt;Group&gt;">
                <path id="_Path_21" data-name="&lt;Path&gt;" d="M1261.438,792.152a.944.944,0,0,1-.938-.954v-6.645a.946.946,0,1,1,1.892,0V791.2A.947.947,0,0,1,1261.438,792.152Z" transform="translate(-1260.5 -783.6)" fill="#e0e0e0"/>
              </g>
            </g>
            <g id="_Group_45" data-name="&lt;Group&gt;" transform="translate(75.389 10.194)">
              <g id="_Group_46" data-name="&lt;Group&gt;">
                <path id="_Path_22" data-name="&lt;Path&gt;" d="M1233.054,797.032a.948.948,0,0,1-.954-.954v-4.425a.946.946,0,1,1,1.892,0v4.425A.944.944,0,0,1,1233.054,797.032Z" transform="translate(-1232.1 -790.7)" fill="#e0e0e0"/>
              </g>
            </g>
            <g id="_Group_47" data-name="&lt;Group&gt;" transform="translate(0 9.084)">
              <g id="_Group_48" data-name="&lt;Group&gt;">
                <path id="_Path_23" data-name="&lt;Path&gt;" d="M750.854,792.152a.947.947,0,0,1-.954-.954v-6.645a.946.946,0,1,1,1.892,0V791.2A.944.944,0,0,1,750.854,792.152Z" transform="translate(-749.9 -783.6)" fill="#e0e0e0"/>
              </g>
            </g>
          </g>
        </g>
        <g id="_Group_49" data-name="&lt;Group&gt;" transform="translate(2.799 108.268)">
          <g id="_Group_50" data-name="&lt;Group&gt;" transform="translate(0 0)">
            <g id="_Group_51" data-name="&lt;Group&gt;" transform="translate(8.865 5.597)">
              <g id="_Group_52" data-name="&lt;Group&gt;">
                <path id="_Path_24" data-name="&lt;Path&gt;" d="M164.254,776.825a.944.944,0,0,1-.954-.938V762.238a.946.946,0,0,1,1.892,0v13.649A.941.941,0,0,1,164.254,776.825Z" transform="translate(-163.3 -761.3)" fill="#e0e0e0"/>
              </g>
            </g>
            <g id="_Group_53" data-name="&lt;Group&gt;" transform="translate(4.425 7.723)">
              <g id="_Group_54" data-name="&lt;Group&gt;">
                <path id="_Path_25" data-name="&lt;Path&gt;" d="M135.854,786.172a.958.958,0,0,1-.954-.954v-9.365a.957.957,0,0,1,.954-.954.944.944,0,0,1,.938.954v9.365A.944.944,0,0,1,135.854,786.172Z" transform="translate(-134.9 -774.9)" fill="#e0e0e0"/>
              </g>
            </g>
            <g id="_Group_55" data-name="&lt;Group&gt;" transform="translate(13.305 7.723)">
              <g id="_Group_56" data-name="&lt;Group&gt;">
                <path id="_Path_26" data-name="&lt;Path&gt;" d="M192.638,786.172a.944.944,0,0,1-.938-.954v-9.365a.946.946,0,1,1,1.892,0v9.365A.948.948,0,0,1,192.638,786.172Z" transform="translate(-191.7 -774.9)" fill="#e0e0e0"/>
              </g>
            </g>
            <g id="_Group_57" data-name="&lt;Group&gt;" transform="translate(17.729 9.646)">
              <g id="_Group_58" data-name="&lt;Group&gt;">
                <path id="_Path_27" data-name="&lt;Path&gt;" d="M220.954,794.626a.944.944,0,0,1-.954-.938v-5.55a.946.946,0,0,1,1.892,0v5.55A.941.941,0,0,1,220.954,794.626Z" transform="translate(-220 -787.2)" fill="#e0e0e0"/>
              </g>
            </g>
            <g id="_Group_59" data-name="&lt;Group&gt;" transform="translate(88.678 5.597)">
              <g id="_Group_60" data-name="&lt;Group&gt;">
                <path id="_Path_28" data-name="&lt;Path&gt;" d="M674.754,776.825a.954.954,0,0,1-.954-.938V762.238a.954.954,0,0,1,.954-.938.941.941,0,0,1,.938.938v13.649A.941.941,0,0,1,674.754,776.825Z" transform="translate(-673.8 -761.3)" fill="#e0e0e0"/>
              </g>
            </g>
            <g id="_Group_61" data-name="&lt;Group&gt;" transform="translate(84.253 7.723)">
              <g id="_Group_62" data-name="&lt;Group&gt;">
                <path id="_Path_29" data-name="&lt;Path&gt;" d="M646.438,786.172a.944.944,0,0,1-.938-.954v-9.365a.946.946,0,1,1,1.892,0v9.365A.948.948,0,0,1,646.438,786.172Z" transform="translate(-645.5 -774.9)" fill="#e0e0e0"/>
              </g>
            </g>
            <g id="_Group_63" data-name="&lt;Group&gt;" transform="translate(93.118 7.723)">
              <g id="_Group_64" data-name="&lt;Group&gt;">
                <path id="_Path_30" data-name="&lt;Path&gt;" d="M703.154,786.172a.948.948,0,0,1-.954-.954v-9.365a.946.946,0,1,1,1.892,0v9.365A.944.944,0,0,1,703.154,786.172Z" transform="translate(-702.2 -774.9)" fill="#e0e0e0"/>
              </g>
            </g>
            <g id="_Group_65" data-name="&lt;Group&gt;" transform="translate(97.558 9.646)">
              <g id="_Group_66" data-name="&lt;Group&gt;">
                <path id="_Path_31" data-name="&lt;Path&gt;" d="M731.538,794.626a.941.941,0,0,1-.938-.938v-5.55a.946.946,0,0,1,1.892,0v5.55A.944.944,0,0,1,731.538,794.626Z" transform="translate(-730.6 -787.2)" fill="#e0e0e0"/>
              </g>
            </g>
            <g id="_Group_67" data-name="&lt;Group&gt;" transform="translate(22.169 7.911)">
              <g id="_Group_68" data-name="&lt;Group&gt;">
                <path id="_Path_32" data-name="&lt;Path&gt;" d="M249.338,787a.941.941,0,0,1-.938-.938v-9.021a.946.946,0,0,1,1.892,0v9.021A.944.944,0,0,1,249.338,787Z" transform="translate(-248.4 -776.1)" fill="#e0e0e0"/>
              </g>
            </g>
            <g id="_Group_69" data-name="&lt;Group&gt;" transform="translate(26.61 5.941)">
              <g id="_Group_70" data-name="&lt;Group&gt;">
                <path id="_Path_33" data-name="&lt;Path&gt;" d="M277.738,778.337a.941.941,0,0,1-.938-.938V764.438a.946.946,0,0,1,1.892,0V777.4A.944.944,0,0,1,277.738,778.337Z" transform="translate(-276.8 -763.5)" fill="#e0e0e0"/>
              </g>
            </g>
            <g id="_Group_71" data-name="&lt;Group&gt;" transform="translate(31.034 3.565)">
              <g id="_Group_72" data-name="&lt;Group&gt;">
                <path id="_Path_34" data-name="&lt;Path&gt;" d="M306.054,767.874a.944.944,0,0,1-.954-.938V749.254a.946.946,0,1,1,1.892,0v17.682A.941.941,0,0,1,306.054,767.874Z" transform="translate(-305.1 -748.3)" fill="#e0e0e0"/>
              </g>
            </g>
            <g id="_Group_73" data-name="&lt;Group&gt;" transform="translate(35.474 5.832)">
              <g id="_Group_74" data-name="&lt;Group&gt;">
                <path id="_Path_35" data-name="&lt;Path&gt;" d="M334.438,777.856a.944.944,0,0,1-.938-.954V763.754a.946.946,0,1,1,1.892,0V776.9A.948.948,0,0,1,334.438,777.856Z" transform="translate(-333.5 -762.8)" fill="#e0e0e0"/>
              </g>
            </g>
            <g id="_Group_75" data-name="&lt;Group&gt;" transform="translate(39.914 7.958)">
              <g id="_Group_76" data-name="&lt;Group&gt;">
                <path id="_Path_36" data-name="&lt;Path&gt;" d="M362.838,787.2a.941.941,0,0,1-.938-.938v-8.927a.938.938,0,0,1,1.876,0v8.927A.941.941,0,0,1,362.838,787.2Z" transform="translate(-361.9 -776.4)" fill="#e0e0e0"/>
              </g>
            </g>
            <g id="_Group_77" data-name="&lt;Group&gt;" transform="translate(44.339 9.084)">
              <g id="_Group_78" data-name="&lt;Group&gt;">
                <path id="_Path_37" data-name="&lt;Path&gt;" d="M391.154,792.152a.948.948,0,0,1-.954-.954v-6.645a.946.946,0,1,1,1.892,0V791.2A.944.944,0,0,1,391.154,792.152Z" transform="translate(-390.2 -783.6)" fill="#e0e0e0"/>
              </g>
            </g>
            <g id="_Group_79" data-name="&lt;Group&gt;" transform="translate(48.779 5.691)">
              <g id="_Group_80" data-name="&lt;Group&gt;">
                <path id="_Path_38" data-name="&lt;Path&gt;" d="M419.538,777.237a.941.941,0,0,1-.938-.938V762.838a.946.946,0,0,1,1.892,0V776.3A.944.944,0,0,1,419.538,777.237Z" transform="translate(-418.6 -761.9)" fill="#e0e0e0"/>
              </g>
            </g>
            <g id="_Group_81" data-name="&lt;Group&gt;" transform="translate(66.508 5.691)">
              <g id="_Group_82" data-name="&lt;Group&gt;">
                <path id="_Path_39" data-name="&lt;Path&gt;" d="M532.954,777.237A.944.944,0,0,1,532,776.3V762.838a.946.946,0,0,1,1.892,0V776.3A.941.941,0,0,1,532.954,777.237Z" transform="translate(-532 -761.9)" fill="#e0e0e0"/>
              </g>
            </g>
            <g id="_Group_83" data-name="&lt;Group&gt;" transform="translate(53.204 3.565)">
              <g id="_Group_84" data-name="&lt;Group&gt;">
                <path id="_Path_40" data-name="&lt;Path&gt;" d="M447.854,767.874a.944.944,0,0,1-.954-.938V749.254a.946.946,0,1,1,1.892,0v17.682A.941.941,0,0,1,447.854,767.874Z" transform="translate(-446.9 -748.3)" fill="#e0e0e0"/>
              </g>
            </g>
            <g id="_Group_85" data-name="&lt;Group&gt;" transform="translate(57.644)">
              <g id="_Group_86" data-name="&lt;Group&gt;">
                <path id="_Path_41" data-name="&lt;Path&gt;" d="M476.254,752.219a.944.944,0,0,1-.954-.938V726.438a.946.946,0,0,1,1.892,0v24.843A.941.941,0,0,1,476.254,752.219Z" transform="translate(-475.3 -725.5)" fill="#e0e0e0"/>
              </g>
            </g>
            <g id="_Group_87" data-name="&lt;Group&gt;" transform="translate(62.084 3.565)">
              <g id="_Group_88" data-name="&lt;Group&gt;">
                <path id="_Path_42" data-name="&lt;Path&gt;" d="M504.638,767.874a.941.941,0,0,1-.938-.938V749.254a.946.946,0,1,1,1.892,0v17.682A.944.944,0,0,1,504.638,767.874Z" transform="translate(-503.7 -748.3)" fill="#e0e0e0"/>
              </g>
            </g>
            <g id="_Group_89" data-name="&lt;Group&gt;" transform="translate(70.948 9.084)">
              <g id="_Group_90" data-name="&lt;Group&gt;">
                <path id="_Path_43" data-name="&lt;Path&gt;" d="M561.338,792.152a.944.944,0,0,1-.938-.954v-6.645a.946.946,0,1,1,1.892,0V791.2A.947.947,0,0,1,561.338,792.152Z" transform="translate(-560.4 -783.6)" fill="#e0e0e0"/>
              </g>
            </g>
            <g id="_Group_91" data-name="&lt;Group&gt;" transform="translate(79.813 9.084)">
              <g id="_Group_92" data-name="&lt;Group&gt;">
                <path id="_Path_44" data-name="&lt;Path&gt;" d="M618.054,792.152a.947.947,0,0,1-.954-.954v-6.645a.946.946,0,1,1,1.892,0V791.2A.944.944,0,0,1,618.054,792.152Z" transform="translate(-617.1 -783.6)" fill="#e0e0e0"/>
              </g>
            </g>
            <g id="_Group_93" data-name="&lt;Group&gt;" transform="translate(75.389 10.194)">
              <g id="_Group_94" data-name="&lt;Group&gt;">
                <path id="_Path_45" data-name="&lt;Path&gt;" d="M589.738,797.032a.944.944,0,0,1-.938-.954v-4.425a.944.944,0,0,1,.938-.954.957.957,0,0,1,.954.954v4.425A.957.957,0,0,1,589.738,797.032Z" transform="translate(-588.8 -790.7)" fill="#e0e0e0"/>
              </g>
            </g>
            <g id="_Group_95" data-name="&lt;Group&gt;" transform="translate(0 9.084)">
              <g id="_Group_96" data-name="&lt;Group&gt;">
                <path id="_Path_46" data-name="&lt;Path&gt;" d="M107.538,792.152a.944.944,0,0,1-.938-.954v-6.645a.946.946,0,1,1,1.892,0V791.2A.947.947,0,0,1,107.538,792.152Z" transform="translate(-106.6 -783.6)" fill="#e0e0e0"/>
              </g>
            </g>
          </g>
        </g>
      </g>
      <g id="Floor" transform="translate(96.204 175.772)">
        <g id="_Group_97" data-name="&lt;Group&gt;" transform="translate(0 0)">
          <g id="_Group_98" data-name="&lt;Group&gt;">
            <path id="_Path_47" data-name="&lt;Path&gt;" d="M326.547,946.278c0,.047-42.51.078-94.916.078-52.437,0-94.931-.031-94.931-.078s42.494-.078,94.931-.078C284.038,946.2,326.547,946.231,326.547,946.278Z" transform="translate(-136.7 -946.2)" fill="#263238"/>
          </g>
        </g>
      </g>
      <g id="Device" transform="translate(161.478 45.57)">
        <g id="_Group_99" data-name="&lt;Group&gt;">
          <g id="_Group_100" data-name="&lt;Group&gt;">
            <g id="_Group_101" data-name="&lt;Group&gt;">
              <g id="_Group_102" data-name="&lt;Group&gt;">
                <g id="_Group_103" data-name="&lt;Group&gt;">
                  <g id="_Group_104" data-name="&lt;Group&gt;">
                    <g id="_Group_105" data-name="&lt;Group&gt;">
                      <g id="_Group_106" data-name="&lt;Group&gt;">
                        <g id="_Group_107" data-name="&lt;Group&gt;">
                          <g id="_Group_108" data-name="&lt;Group&gt;">
                            <path id="_Path_48" data-name="&lt;Path&gt;" d="M607.732,243.867l-43.979-.2a9.632,9.632,0,0,1-9.553-9.693L554.669,123a9.608,9.608,0,0,1,9.631-9.6l43.995.2a9.625,9.625,0,0,1,9.537,9.678l-.469,110.988a9.618,9.618,0,0,1-9.631,9.6Z" transform="translate(-554.2 -113.399)" fill="#263238"/>
                          </g>
                        </g>
                      </g>
                    </g>
                    <g id="_Group_109" data-name="&lt;Group&gt;" transform="translate(2.924 3.831)">
                      <g id="_Group_110" data-name="&lt;Group&gt;">
                        <path id="_Path_49" data-name="&lt;Path&gt;" d="M624.008,138.1l-8.536-.031-24.905-.125-3-.016-7.458-.031a6.749,6.749,0,0,0-6.754,6.723l-.453,108.33a6.736,6.736,0,0,0,6.692,6.77l43.9.2a6.726,6.726,0,0,0,6.738-6.723l.453-108.314a6.726,6.726,0,0,0-6.676-6.785Z" transform="translate(-572.9 -137.9)"/>
                      </g>
                    </g>
                  </g>
                </g>
              </g>
            </g>
          </g>
          <g id="_Group_111" data-name="&lt;Group&gt;" transform="translate(54.095 11.663)">
            <g id="_Group_112" data-name="&lt;Group&gt;">
              <g id="_Group_113" data-name="&lt;Group&gt;" transform="translate(0.016)">
                <g id="_Group_114" data-name="&lt;Group&gt;">
                  <g id="_Group_115" data-name="&lt;Group&gt;">
                    <g id="_Group_116" data-name="&lt;Group&gt;">
                      <path id="_Path_50" data-name="&lt;Path&gt;" d="M901.379,188.547a.554.554,0,0,1-.547.547.547.547,0,1,1,.547-.547Z" transform="translate(-900.3 -188)" fill="#e0e0e0"/>
                    </g>
                  </g>
                </g>
              </g>
              <g id="_Group_117" data-name="&lt;Group&gt;" transform="translate(0 1.954)">
                <g id="_Group_118" data-name="&lt;Group&gt;">
                  <g id="_Group_119" data-name="&lt;Group&gt;">
                    <g id="_Group_120" data-name="&lt;Group&gt;">
                      <path id="_Path_51" data-name="&lt;Path&gt;" d="M901.294,201.047a.547.547,0,1,1-.547-.547A.554.554,0,0,1,901.294,201.047Z" transform="translate(-900.2 -200.5)" fill="#e0e0e0"/>
                    </g>
                  </g>
                </g>
              </g>
              <g id="_Group_121" data-name="&lt;Group&gt;" transform="translate(0 3.924)">
                <g id="_Group_122" data-name="&lt;Group&gt;">
                  <g id="_Group_123" data-name="&lt;Group&gt;">
                    <g id="_Group_124" data-name="&lt;Group&gt;">
                      <path id="_Path_52" data-name="&lt;Path&gt;" d="M901.279,213.628a.534.534,0,0,1-.547.547.541.541,0,0,1-.531-.547.522.522,0,0,1,.547-.532A.527.527,0,0,1,901.279,213.628Z" transform="translate(-900.2 -213.096)" fill="#e0e0e0"/>
                    </g>
                  </g>
                </g>
              </g>
            </g>
          </g>
          <g id="_Group_125" data-name="&lt;Group&gt;" transform="translate(8.255 10.256)">
            <g id="_Group_126" data-name="&lt;Group&gt;">
              <path id="_Path_53" data-name="&lt;Path&gt;" d="M614.192,182.6a3.6,3.6,0,1,1-3.6-3.6A3.6,3.6,0,0,1,614.192,182.6Z" transform="translate(-607 -179)" fill="#e0e0e0"/>
            </g>
          </g>
          <g id="_Group_127" data-name="&lt;Group&gt;" transform="translate(23.17 13.446)">
            <path id="_Path_54" data-name="&lt;Path&gt;" d="M722.209,201.855H703.4a.984.984,0,0,1-1-.985V200.4a.988.988,0,0,1,1-1h18.808a1,1,0,0,1,1,1v.469A.994.994,0,0,1,722.209,201.855Z" transform="translate(-702.4 -199.4)" fill="#e0e0e0"/>
          </g>
        </g>
      </g>
      <g id="Voice_Chat" data-name="Voice Chat" transform="translate(143.936 73.774)">
        <g id="_Group_128" data-name="&lt;Group&gt;">
          <g id="_Group_129" data-name="&lt;Group&gt;">
            <path id="_Path_55" data-name="&lt;Path&gt;" d="M509.79,314.5H452.365A9.361,9.361,0,0,1,443,305.134v-.985a9.358,9.358,0,0,1,9.365-9.349H509.79a9.355,9.355,0,0,1,9.349,9.349v.985A9.358,9.358,0,0,1,509.79,314.5Z" transform="translate(-442.844 -294.644)" fill="#fafafa"/>
            <path id="_Compound_Path_" data-name="&lt;Compound Path&gt;" d="M508.946,313.812H451.521A9.528,9.528,0,0,1,442,304.291v-.985a9.525,9.525,0,0,1,9.521-9.506h57.425a9.521,9.521,0,0,1,9.506,9.506v.985A9.525,9.525,0,0,1,508.946,313.812Zm-57.425-19.7a9.211,9.211,0,0,0-9.209,9.193v.985a9.215,9.215,0,0,0,9.209,9.209h57.425a9.211,9.211,0,0,0,9.193-9.209v-.985a9.208,9.208,0,0,0-9.193-9.193Z" transform="translate(-442 -293.8)" fill="#263238" fill-rule="evenodd"/>
          </g>
          <g id="_Group_130" data-name="&lt;Group&gt;" transform="translate(18.433 3.158)">
            <g id="_Group_131" data-name="&lt;Group&gt;" transform="translate(4.675 2.939)">
              <path id="_Path_56" data-name="&lt;Path&gt;" d="M590.269,340.93a.47.47,0,0,1-.469-.469v-7.192a.469.469,0,1,1,.938,0v7.192A.47.47,0,0,1,590.269,340.93Z" transform="translate(-589.8 -332.8)" fill="#a4a4a4"/>
            </g>
            <g id="_Group_132" data-name="&lt;Group&gt;" transform="translate(2.345 4.065)">
              <path id="_Path_57" data-name="&lt;Path&gt;" d="M575.369,345.878a.461.461,0,0,1-.469-.469v-4.94a.47.47,0,0,1,.469-.469.481.481,0,0,1,.469.469v4.94A.47.47,0,0,1,575.369,345.878Z" transform="translate(-574.9 -340)" fill="#a4a4a4"/>
            </g>
            <g id="_Group_133" data-name="&lt;Group&gt;" transform="translate(7.004 4.065)">
              <path id="_Path_58" data-name="&lt;Path&gt;" d="M605.169,345.878a.47.47,0,0,1-.469-.469v-4.94a.481.481,0,0,1,.469-.469.47.47,0,0,1,.469.469v4.94A.461.461,0,0,1,605.169,345.878Z" transform="translate(-604.7 -340)" fill="#a4a4a4"/>
            </g>
            <g id="_Group_134" data-name="&lt;Group&gt;" transform="translate(9.349 5.081)">
              <path id="_Path_59" data-name="&lt;Path&gt;" d="M620.169,350.346a.461.461,0,0,1-.469-.469v-2.908a.461.461,0,0,1,.469-.469.47.47,0,0,1,.469.469v2.908A.47.47,0,0,1,620.169,350.346Z" transform="translate(-619.7 -346.5)" fill="#a4a4a4"/>
            </g>
            <g id="_Group_135" data-name="&lt;Group&gt;" transform="translate(46.715 2.939)">
              <path id="_Path_60" data-name="&lt;Path&gt;" d="M859.169,340.93a.47.47,0,0,1-.469-.469v-7.192a.47.47,0,0,1,.469-.469.481.481,0,0,1,.469.469v7.192A.481.481,0,0,1,859.169,340.93Z" transform="translate(-858.7 -332.8)" fill="#a4a4a4"/>
            </g>
            <g id="_Group_136" data-name="&lt;Group&gt;" transform="translate(44.386 4.065)">
              <path id="_Path_61" data-name="&lt;Path&gt;" d="M844.269,345.878a.461.461,0,0,1-.469-.469v-4.94a.47.47,0,0,1,.469-.469.481.481,0,0,1,.469.469v4.94A.47.47,0,0,1,844.269,345.878Z" transform="translate(-843.8 -340)" fill="#a4a4a4"/>
            </g>
            <g id="_Group_137" data-name="&lt;Group&gt;" transform="translate(49.045 4.065)">
              <path id="_Path_62" data-name="&lt;Path&gt;" d="M874.069,345.878a.47.47,0,0,1-.469-.469v-4.94a.481.481,0,0,1,.469-.469.47.47,0,0,1,.469.469v4.94A.461.461,0,0,1,874.069,345.878Z" transform="translate(-873.6 -340)" fill="#a4a4a4"/>
            </g>
            <g id="_Group_138" data-name="&lt;Group&gt;" transform="translate(51.39 5.081)">
              <path id="_Path_63" data-name="&lt;Path&gt;" d="M889.069,350.346a.461.461,0,0,1-.469-.469v-2.908a.461.461,0,0,1,.469-.469.47.47,0,0,1,.469.469v2.908A.47.47,0,0,1,889.069,350.346Z" transform="translate(-888.6 -346.5)" fill="#a4a4a4"/>
            </g>
            <g id="_Group_139" data-name="&lt;Group&gt;" transform="translate(11.679 4.159)">
              <path id="_Path_64" data-name="&lt;Path&gt;" d="M635.069,346.291a.47.47,0,0,1-.469-.469v-4.753a.481.481,0,0,1,.469-.469.47.47,0,0,1,.469.469v4.753A.461.461,0,0,1,635.069,346.291Z" transform="translate(-634.6 -340.6)" fill="#a4a4a4"/>
            </g>
            <g id="_Group_140" data-name="&lt;Group&gt;" transform="translate(14.024 3.127)">
              <path id="_Path_65" data-name="&lt;Path&gt;" d="M650.069,341.755a.461.461,0,0,1-.469-.469v-6.817a.461.461,0,0,1,.469-.469.47.47,0,0,1,.469.469v6.817A.47.47,0,0,1,650.069,341.755Z" transform="translate(-649.6 -334)" fill="#a4a4a4"/>
            </g>
            <g id="_Group_141" data-name="&lt;Group&gt;" transform="translate(16.353 1.876)">
              <path id="_Path_66" data-name="&lt;Path&gt;" d="M664.969,336.256a.461.461,0,0,1-.469-.469v-9.318a.47.47,0,0,1,.469-.469.481.481,0,0,1,.469.469v9.318A.47.47,0,0,1,664.969,336.256Z" transform="translate(-664.5 -326)" fill="#a4a4a4"/>
            </g>
            <g id="_Group_142" data-name="&lt;Group&gt;" transform="translate(18.683 3.064)">
              <path id="_Path_67" data-name="&lt;Path&gt;" d="M679.869,341.48a.481.481,0,0,1-.469-.469v-6.942a.481.481,0,0,1,.469-.469.47.47,0,0,1,.469.469v6.942A.47.47,0,0,1,679.869,341.48Z" transform="translate(-679.4 -333.6)" fill="#a4a4a4"/>
            </g>
            <g id="_Group_143" data-name="&lt;Group&gt;" transform="translate(21.028 4.19)">
              <path id="_Path_68" data-name="&lt;Path&gt;" d="M694.869,346.428a.461.461,0,0,1-.469-.469v-4.69a.461.461,0,0,1,.469-.469.47.47,0,0,1,.469.469v4.69A.47.47,0,0,1,694.869,346.428Z" transform="translate(-694.4 -340.8)" fill="#a4a4a4"/>
            </g>
            <g id="_Group_144" data-name="&lt;Group&gt;" transform="translate(23.358 4.784)">
              <path id="_Path_69" data-name="&lt;Path&gt;" d="M709.769,349.04a.47.47,0,0,1-.469-.469v-3.5a.481.481,0,0,1,.469-.469.47.47,0,0,1,.469.469v3.5A.461.461,0,0,1,709.769,349.04Z" transform="translate(-709.3 -344.6)" fill="#a4a4a4"/>
            </g>
            <g id="_Group_145" data-name="&lt;Group&gt;" transform="translate(25.687 3.002)">
              <path id="_Path_70" data-name="&lt;Path&gt;" d="M724.669,341.22a.481.481,0,0,1-.469-.469v-7.082a.47.47,0,0,1,.469-.469.461.461,0,0,1,.469.469v7.082A.47.47,0,0,1,724.669,341.22Z" transform="translate(-724.2 -333.2)" fill="#a4a4a4"/>
            </g>
            <g id="_Group_146" data-name="&lt;Group&gt;" transform="translate(35.036 3.002)">
              <path id="_Path_71" data-name="&lt;Path&gt;" d="M784.469,341.22a.47.47,0,0,1-.469-.469v-7.082a.469.469,0,1,1,.938,0v7.082A.47.47,0,0,1,784.469,341.22Z" transform="translate(-784 -333.2)" fill="#a4a4a4"/>
            </g>
            <g id="_Group_147" data-name="&lt;Group&gt;" transform="translate(28.032 1.876)">
              <path id="_Path_72" data-name="&lt;Path&gt;" d="M739.669,336.256a.461.461,0,0,1-.469-.469v-9.318a.47.47,0,0,1,.469-.469.481.481,0,0,1,.469.469v9.318A.47.47,0,0,1,739.669,336.256Z" transform="translate(-739.2 -326)" fill="#a4a4a4"/>
            </g>
            <g id="_Group_148" data-name="&lt;Group&gt;" transform="translate(30.362)">
              <path id="_Path_73" data-name="&lt;Path&gt;" d="M754.569,328.008a.47.47,0,0,1-.469-.469v-13.07a.47.47,0,0,1,.469-.469.461.461,0,0,1,.469.469v13.07A.461.461,0,0,1,754.569,328.008Z" transform="translate(-754.1 -314)" fill="#a4a4a4"/>
            </g>
            <g id="_Group_149" data-name="&lt;Group&gt;" transform="translate(32.707 1.876)">
              <path id="_Path_74" data-name="&lt;Path&gt;" d="M769.569,336.256a.461.461,0,0,1-.469-.469v-9.318a.47.47,0,0,1,.469-.469.481.481,0,0,1,.469.469v9.318A.47.47,0,0,1,769.569,336.256Z" transform="translate(-769.1 -326)" fill="#a4a4a4"/>
            </g>
            <g id="_Group_150" data-name="&lt;Group&gt;" transform="translate(37.366 4.784)">
              <path id="_Path_75" data-name="&lt;Path&gt;" d="M799.369,349.04a.47.47,0,0,1-.469-.469v-3.5a.481.481,0,0,1,.469-.469.47.47,0,0,1,.469.469v3.5A.461.461,0,0,1,799.369,349.04Z" transform="translate(-798.9 -344.6)" fill="#a4a4a4"/>
            </g>
            <g id="_Group_151" data-name="&lt;Group&gt;" transform="translate(42.041 4.784)">
              <path id="_Path_76" data-name="&lt;Path&gt;" d="M829.269,349.04a.47.47,0,0,1-.469-.469v-3.5a.481.481,0,0,1,.469-.469.47.47,0,0,1,.469.469v3.5A.461.461,0,0,1,829.269,349.04Z" transform="translate(-828.8 -344.6)" fill="#a4a4a4"/>
            </g>
            <g id="_Group_152" data-name="&lt;Group&gt;" transform="translate(39.711 5.363)">
              <path id="_Path_77" data-name="&lt;Path&gt;" d="M814.369,351.583a.47.47,0,0,1-.469-.469v-2.345a.47.47,0,0,1,.469-.469.481.481,0,0,1,.469.469v2.345A.481.481,0,0,1,814.369,351.583Z" transform="translate(-813.9 -348.3)" fill="#a4a4a4"/>
            </g>
            <g id="_Group_153" data-name="&lt;Group&gt;" transform="translate(0 4.784)">
              <path id="_Path_78" data-name="&lt;Path&gt;" d="M560.369,349.04a.47.47,0,0,1-.469-.469v-3.5a.481.481,0,0,1,.469-.469.47.47,0,0,1,.469.469v3.5A.461.461,0,0,1,560.369,349.04Z" transform="translate(-559.9 -344.6)" fill="#a4a4a4"/>
            </g>
          </g>
          <g id="_Group_154" data-name="&lt;Group&gt;" transform="translate(3.002 3.33)">
            <path id="_Path_79" data-name="&lt;Path&gt;" d="M474.442,321.729a6.621,6.621,0,1,1-6.629-6.629A6.632,6.632,0,0,1,474.442,321.729Z" transform="translate(-461.2 -315.1)"/>
          </g>
          <g id="_Group_155" data-name="&lt;Group&gt;" transform="translate(7.864 7.573)">
            <path id="_Path_80" data-name="&lt;Path&gt;" d="M492.3,344.828V342.9a.658.658,0,0,1,.985-.578l1.673.969,1.673.969a.647.647,0,0,1,0,1.126l-1.673.969-1.673.969a.657.657,0,0,1-.985-.563Z" transform="translate(-492.3 -342.238)" fill="#fff"/>
          </g>
        </g>
      </g>
    </g>
    <g id="_Group_156" data-name="&lt;Group&gt;" transform="translate(727.624 4317.84)">
      <g id="_Group_157" data-name="&lt;Group&gt;" transform="translate(6.904 7.321)">
        <g id="_Group_158" data-name="&lt;Group&gt;">
          <g id="_Group_159" data-name="&lt;Group&gt;">
            <path id="_Path_81" data-name="&lt;Path&gt;" d="M1006.829,106.483a6.927,6.927,0,0,1-6.929-6.929V91.429a6.92,6.92,0,1,1,13.84,0v8.125A6.923,6.923,0,0,1,1006.829,106.483Z" transform="translate(-999.9 -84.5)" fill="#ebebeb"/>
          </g>
        </g>
      </g>
      <g id="_Group_160" data-name="&lt;Group&gt;" transform="translate(3.598 23.29)">
        <g id="_Group_161" data-name="&lt;Group&gt;">
          <g id="_Group_162" data-name="&lt;Group&gt;">
            <path id="_Path_82" data-name="&lt;Path&gt;" d="M992.435,180.235A10.251,10.251,0,0,1,982.2,170h.99a9.25,9.25,0,0,0,9.227,9.245,8.865,8.865,0,0,0,9.245-9.245h.99a9.8,9.8,0,0,1-10.216,10.235Z" transform="translate(-982.2 -170)" fill="#ebebeb"/>
          </g>
        </g>
      </g>
      <g id="_Group_163" data-name="&lt;Group&gt;" transform="translate(13.329 33.021)">
        <g id="_Group_164" data-name="&lt;Group&gt;">
          <g id="_Group_165" data-name="&lt;Group&gt;">
            <path id="_Path_83" data-name="&lt;Path&gt;" d="M1035.29,227.105h-.99V222.1h.99Z" transform="translate(-1034.3 -222.1)" fill="#ebebeb"/>
          </g>
        </g>
      </g>
      <g id="_Group_166" data-name="&lt;Group&gt;" transform="translate(7.782 37.298)">
        <g id="_Group_167" data-name="&lt;Group&gt;">
          <g id="_Group_168" data-name="&lt;Group&gt;">
            <path id="_Path_84" data-name="&lt;Path&gt;" d="M1016.684,245.99H1004.6V245h12.084Z" transform="translate(-1004.6 -245)" fill="#ebebeb"/>
          </g>
        </g>
      </g>
      <g id="_Group_169" data-name="&lt;Group&gt;" transform="translate(0 9.426)">
        <g id="_Group_170" data-name="&lt;Group&gt;">
          <g id="_Group_171" data-name="&lt;Group&gt;">
            <g id="_Group_172" data-name="&lt;Group&gt;">
              <path id="_Path_85" data-name="&lt;Path&gt;" d="M966.551,98.2a5.551,5.551,0,0,1-1.774-.579c-1.476-.616-1.98-.934-1.812-1.475l.075-.205.243-.112c.5-.243,1.812.3,2.073.411s1.55.672,1.737,1.214l.075.205-.093.243h0A.555.555,0,0,1,966.551,98.2Z" transform="translate(-962.934 -95.768)" fill="#ebebeb"/>
            </g>
          </g>
        </g>
      </g>
      <g id="_Group_173" data-name="&lt;Group&gt;" transform="translate(4.675 2.372)">
        <g id="_Group_174" data-name="&lt;Group&gt;">
          <g id="_Group_175" data-name="&lt;Group&gt;">
            <g id="_Group_176" data-name="&lt;Group&gt;">
              <path id="_Path_86" data-name="&lt;Path&gt;" d="M990.866,62.3c-.318,0-.8-.355-1.793-1.7-1.177-1.606-1.121-2-1.1-2.111l.037-.205.336-.28.243.019c.131.019.523.075,1.7,1.681,1.382,1.868,1.214,2.241.9,2.484h-.019A.529.529,0,0,1,990.866,62.3Z" transform="translate(-987.964 -58)" fill="#ebebeb"/>
            </g>
          </g>
        </g>
      </g>
      <g id="_Group_177" data-name="&lt;Group&gt;" transform="translate(13.123)">
        <g id="_Group_178" data-name="&lt;Group&gt;">
          <g id="_Group_179" data-name="&lt;Group&gt;">
            <g id="_Group_180" data-name="&lt;Group&gt;">
              <path id="_Path_87" data-name="&lt;Path&gt;" d="M1033.738,50.1l-.187-.168c-.093-.093-.373-.355-.355-2.241s.317-2.148.411-2.241l.149-.149h.261c.3.037.71.056.691,2.409-.037,2.335-.448,2.353-.747,2.372Z" transform="translate(-1033.195 -45.3)" fill="#ebebeb"/>
            </g>
          </g>
        </g>
      </g>
      <g id="_Group_181" data-name="&lt;Group&gt;" transform="translate(19.355 2.422)">
        <g id="_Group_182" data-name="&lt;Group&gt;">
          <g id="_Group_183" data-name="&lt;Group&gt;">
            <g id="_Group_184" data-name="&lt;Group&gt;">
              <path id="_Path_88" data-name="&lt;Path&gt;" d="M1066.942,61.988l-.206-.168c-.429-.392-.037-.971.822-2.111.859-1.121,1.289-1.662,1.793-1.363l.187.112.075.261c.112.6-.747,1.774-.859,1.905-.094.131-.99,1.289-1.588,1.345Z" transform="translate(-1066.561 -58.265)" fill="#ebebeb"/>
            </g>
          </g>
        </g>
      </g>
      <g id="_Group_185" data-name="&lt;Group&gt;" transform="translate(23.678 8.946)">
        <g id="_Group_186" data-name="&lt;Group&gt;">
          <g id="_Group_187" data-name="&lt;Group&gt;">
            <g id="_Group_188" data-name="&lt;Group&gt;">
              <path id="_Path_89" data-name="&lt;Path&gt;" d="M1090.248,96.038a.478.478,0,0,1-.467-.28c-.261-.467.243-.878.486-1.065a10.686,10.686,0,0,1,1.121-.728c1.849-1.046,2.185-.822,2.372-.486.261.467-.243.859-.486,1.065a9.38,9.38,0,0,1-1.139.728A4.66,4.66,0,0,1,1090.248,96.038Z" transform="translate(-1089.708 -93.199)" fill="#ebebeb"/>
            </g>
          </g>
        </g>
      </g>
    </g>
  </g>
</svg>
