<svg id="Group_7398" data-name="Group 7398" xmlns="http://www.w3.org/2000/svg" width="37.714" height="38.022" viewBox="0 0 37.714 38.022">
  <path id="Path_40635" data-name="Path 40635" d="M24.848,46.351l.618.308a16.172,16.172,0,0,0,8.343,2.26h0A16.438,16.438,0,1,0,17.433,32.584a16.817,16.817,0,0,0,2.472,8.63l.412.617-1.648,6.061Z" transform="translate(-15.003 -13.47)" fill="#00e676"/>
  <path id="Path_40636" data-name="Path 40636" d="M32.268,5.549A18.5,18.5,0,0,0,19.011,0,18.771,18.771,0,0,0,.206,18.909,19.842,19.842,0,0,0,2.672,28.26L0,38.022l9.968-2.569a18.349,18.349,0,0,0,8.94,2.261h0A18.9,18.9,0,0,0,37.714,18.806,18.65,18.65,0,0,0,32.268,5.549ZM19.011,34.528h0A15.267,15.267,0,0,1,11.1,32.371l-.617-.308L4.522,33.6l1.541-5.857-.411-.617A15.6,15.6,0,1,1,27.13,32.165,14.982,14.982,0,0,1,19.011,34.528Zm9.043-11.407-1.13-.514s-1.644-.719-2.672-1.233c-.1,0-.206-.1-.308-.1a1.484,1.484,0,0,0-.719.206h0s-.1.1-1.541,1.747a.565.565,0,0,1-.514.308h-.1a.78.78,0,0,1-.411-.206l-.514-.206h0a9.993,9.993,0,0,1-2.98-1.953c-.206-.206-.514-.411-.719-.617a11.476,11.476,0,0,1-1.952-2.466l-.1-.206c-.1-.1-.1-.206-.206-.411a.77.77,0,0,1,.1-.514s.411-.514.719-.822c.206-.206.308-.514.514-.719a1.266,1.266,0,0,0,.206-1.028,39.985,39.985,0,0,0-1.644-3.905,1.189,1.189,0,0,0-.719-.514h-1.13c-.206,0-.411.1-.617.1l-.1.1c-.206.1-.411.308-.617.411-.206.206-.308.411-.514.617a5.241,5.241,0,0,0-1.13,3.186h0a6.1,6.1,0,0,0,.514,2.364l.1.308a17.12,17.12,0,0,0,3.8,5.241l.411.411a6.2,6.2,0,0,1,.822.822,18.363,18.363,0,0,0,7.4,3.9c.308.1.719.1,1.028.206h1.028a3.811,3.811,0,0,0,1.542-.411c.308-.206.514-.206.719-.411l.206-.206c.206-.206.411-.308.617-.514a2.727,2.727,0,0,0,.514-.617,5.894,5.894,0,0,0,.411-1.439v-.719A1.271,1.271,0,0,0,28.054,23.122Z" fill="#fff"/>
</svg>
