<svg xmlns="http://www.w3.org/2000/svg" width="40" height="40" viewBox="0 0 40 40">
  <g id="Group_7690" data-name="Group 7690" transform="translate(-262 -6319)">
    <rect id="Rectangle_137" data-name="Rectangle 137" width="40" height="40" rx="5" transform="translate(262 6319)" fill="#ce1312"/>
    <g id="Icons" transform="translate(274 6333)">
      <g id="Color-">
        <path id="Youtube" d="M206.348,375.757v-4.527l4.323,2.271Zm9.492-5.312a3.5,3.5,0,0,0-.636-1.6,2.278,2.278,0,0,0-1.6-.682C211.362,368,208,368,208,368H208s-3.359,0-5.6.163a2.278,2.278,0,0,0-1.6.682,3.5,3.5,0,0,0-.636,1.6,24.55,24.55,0,0,0-.16,2.608v1.223a24.531,24.531,0,0,0,.16,2.608,3.5,3.5,0,0,0,.636,1.6,2.7,2.7,0,0,0,1.764.689c1.28.124,5.44.162,5.44.162s3.362-.005,5.6-.168a2.28,2.28,0,0,0,1.6-.683,3.5,3.5,0,0,0,.636-1.6,24.531,24.531,0,0,0,.16-2.608v-1.223a24.55,24.55,0,0,0-.16-2.608Z" transform="translate(-200 -368)" fill="#fff" fill-rule="evenodd"/>
      </g>
    </g>
  </g>
</svg>
